M48
; DRILL file {KiCad 8.0.8-8.0.8-0~ubuntu24.04.1} date 2025-02-16T17:21:06-0600
; FORMAT={-:-/ absolute / metric / decimal}
; #@! TF.CreationDate,2025-02-16T17:21:06-06:00
; #@! TF.GenerationSoftware,Kicad,Pcbnew,8.0.8-8.0.8-0~ubuntu24.04.1
; #@! TF.FileFunction,Plated,1,2,PTH
FMAT,2
METRIC
; #@! TA.AperFunction,Plated,PTH,ViaDrill
T1C0.300
; #@! TA.AperFunction,Plated,PTH,ComponentDrill
T2C0.300
; #@! TA.AperFunction,Plated,PTH,ComponentDrill
T3C0.500
; #@! TA.AperFunction,Plated,PTH,ComponentDrill
T4C0.800
; #@! TA.AperFunction,Plated,PTH,ComponentDrill
T5C1.000
%
G90
G05
T1
X106.75Y-50.9
X106.832Y-71.374
X108.08Y-62.8
X108.975Y-65.9
X109.14Y-90.19
X109.3Y-60.7
X109.398Y-71.501
X109.54Y-84.709
X109.644Y-95.706
X110.16Y-48.616
X110.2Y-45.5
X110.725Y-93.225
X110.765Y-77.075
X110.84Y-84.735
X110.925Y-113.487
X111.045Y-62.625
X111.531Y-59.487
X111.606Y-91.067
X112.08Y-70.409
X112.4Y-129.775
X112.475Y-88.675
X113.375Y-121.725
X113.66Y-67.02
X114.07Y-47.34
X114.225Y-79.483
X115.65Y-128.025
X115.72Y-58.35
X115.728Y-77.997
X116.11Y-113.92
X116.53Y-105.33
X116.725Y-120.4
X117.06Y-123.85
X117.1Y-111.475
X117.256Y-76.545
X117.52Y-93.06
X117.96Y-134.64
X118.484Y-69.063
X118.733Y-75.042
X118.82Y-61.45
X119.575Y-89.867
X119.575Y-126.65
X119.72Y-82.2
X119.92Y-76.229
X119.923Y-69.088
X121.35Y-94.25
X121.427Y-68.874
X121.5Y-65.434
X122.631Y-95.225
X122.936Y-65.507
X122.987Y-68.84
X123.393Y-66.726
X123.902Y-88.823
X124.26Y-87.425
X124.308Y-69.063
X124.439Y-75.671
X124.469Y-86.134
X124.792Y-84.875
X124.968Y-65.481
X124.992Y-58.077
X124.994Y-53.637
X125.079Y-55.854
X125.081Y-63.328
X125.4Y-50.55
X125.73Y-69.266
X125.955Y-93.705
X126.0Y-62.409
X126.05Y-98.7
X126.089Y-84.686
X127.408Y-84.52
X127.412Y-75.661
X127.46Y-55.14
X127.544Y-53.923
X127.715Y-52.88
X127.72Y-101.37
X128.05Y-98.72
X128.275Y-130.775
X128.6Y-82.2
X128.675Y-67.05
X129.623Y-70.661
X129.828Y-50.847
X130.03Y-61.925
X130.39Y-135.67
X130.574Y-51.513
X130.7Y-126.225
X130.924Y-70.688
X130.962Y-63.858
X130.988Y-52.654
X132.212Y-68.26
X132.73Y-125.337
X133.718Y-82.232
X134.125Y-112.65
X134.25Y-115.275
X134.552Y-83.9
X134.65Y-120.3
X134.775Y-117.875
X134.85Y-122.975
X134.874Y-108.941
X135.075Y-50.525
X135.34Y-58.09
X135.34Y-60.325
X135.34Y-63.382
X135.365Y-55.78
X135.47Y-45.26
X135.515Y-70.482
X135.527Y-67.023
X135.546Y-53.732
X135.825Y-82.494
X136.0Y-115.5
X136.296Y-125.882
X136.335Y-93.336
X136.457Y-110.447
X136.525Y-113.225
X136.548Y-74.085
X136.55Y-92.025
X136.652Y-101.473
X136.67Y-49.91
X136.68Y-54.102
X136.703Y-83.896
X136.71Y-48.12
X136.91Y-109.2
X137.05Y-106.55
X137.172Y-70.828
X137.389Y-62.44
X137.875Y-73.79
X138.049Y-82.245
X138.405Y-91.186
X138.93Y-74.869
X139.142Y-83.079
X139.25Y-69.65
X139.6Y-67.05
X139.954Y-95.326
X140.132Y-96.876
X140.259Y-83.744
X140.411Y-65.532
X140.625Y-75.8
X140.675Y-70.75
X140.762Y-68.388
X141.225Y-95.775
X141.41Y-82.592
X141.453Y-106.426
X141.951Y-76.6
X142.215Y-74.651
X142.469Y-94.47
X142.55Y-72.009
X143.581Y-55.127
X143.71Y-50.26
X144.043Y-93.42
X145.491Y-59.472
X145.93Y-61.95
X146.202Y-73.127
X146.228Y-63.221
X146.25Y-99.21
X147.253Y-65.378
X147.28Y-116.76
X147.61Y-103.99
X148.412Y-89.332
X148.75Y-48.325
X149.65Y-108.725
X149.919Y-65.499
X150.1Y-95.569
X150.324Y-89.212
X150.633Y-56.85
X150.833Y-60.665
X151.397Y-59.494
X151.554Y-74.287
X151.792Y-94.346
X151.892Y-89.103
X152.07Y-63.375
X152.875Y-95.525
X153.222Y-89.279
X153.524Y-65.684
X153.822Y-72.039
X154.178Y-75.209
X154.229Y-90.119
X154.779Y-62.838
X154.991Y-60.723
X155.786Y-74.543
X155.931Y-76.35
X156.896Y-61.951
X157.13Y-116.78
X157.325Y-47.8
X157.969Y-90.456
X158.113Y-92.074
X158.256Y-74.17
X158.4Y-107.1
X159.283Y-72.034
X160.035Y-109.135
X160.397Y-78.625
X160.528Y-125.857
X160.579Y-51.13
X161.315Y-54.966
X161.569Y-53.569
X161.646Y-103.0
X162.261Y-64.75
X162.297Y-62.149
X162.331Y-123.063
X162.91Y-78.625
X163.754Y-59.08
X164.39Y-63.856
X164.57Y-53.62
X165.28Y-96.05
X165.363Y-75.44
X165.575Y-48.525
X166.506Y-66.05
X166.509Y-67.56
X166.65Y-59.975
X167.767Y-94.767
X167.931Y-65.99
X168.504Y-92.75
X168.925Y-106.089
X169.266Y-78.625
X169.824Y-72.025
X169.95Y-69.9
X170.0Y-111.176
X170.053Y-97.765
X170.55Y-61.25
X170.725Y-73.1
X171.2Y-69.13
X171.25Y-100.55
X171.525Y-65.407
X172.024Y-73.151
X174.37Y-101.45
X174.371Y-63.805
X174.46Y-72.976
X174.955Y-75.946
X175.029Y-77.525
X175.4Y-102.9
X176.727Y-73.135
X177.87Y-70.65
X179.475Y-80.65
X180.4Y-47.725
X180.45Y-50.875
X180.939Y-65.121
X181.05Y-55.15
X181.24Y-125.36
X181.5Y-99.85
X183.11Y-135.51
X185.01Y-67.48
X185.025Y-81.25
X185.03Y-61.16
X186.0Y-82.3
X186.975Y-88.325
X187.05Y-57.95
X187.224Y-83.35
X187.225Y-55.55
X187.46Y-51.59
X187.475Y-46.7
X187.91Y-80.2
X188.376Y-84.395
X188.71Y-58.525
X188.71Y-60.65
X189.311Y-85.514
X189.825Y-57.6
X190.23Y-86.566
X191.52Y-135.61
X191.975Y-63.775
X193.9Y-45.453
X194.15Y-63.725
X194.9Y-111.95
X195.075Y-50.875
X196.8Y-54.5
T2
X110.96Y-50.59
X110.96Y-51.54
X110.96Y-52.49
X110.96Y-53.39
X110.96Y-54.29
X110.96Y-55.19
X110.96Y-56.14
X110.96Y-57.09
X112.36Y-50.59
X112.36Y-51.54
X112.36Y-52.49
X112.36Y-53.39
X112.36Y-54.29
X112.36Y-55.19
X112.36Y-56.14
X112.36Y-57.09
T4
X108.185Y-97.57
X108.185Y-100.11
X108.185Y-102.65
X108.185Y-105.19
X108.185Y-107.73
X108.185Y-110.27
X108.185Y-112.81
X108.185Y-115.35
X108.185Y-117.89
X108.185Y-120.43
X108.185Y-122.97
X108.185Y-125.51
X108.185Y-128.05
X108.185Y-130.59
X108.185Y-133.13
X108.185Y-135.67
X123.425Y-97.57
X123.425Y-100.11
X123.425Y-102.65
X123.425Y-105.19
X123.425Y-107.73
X123.425Y-110.27
X123.425Y-112.81
X123.425Y-115.35
X123.425Y-117.89
X123.425Y-120.43
X123.425Y-122.97
X123.425Y-125.51
X123.425Y-128.05
X123.425Y-130.59
X123.425Y-133.13
X123.425Y-135.67
X138.376Y-97.74
X138.376Y-100.28
X138.376Y-102.82
X138.376Y-105.36
X138.376Y-107.9
X138.376Y-110.44
X138.376Y-112.98
X138.376Y-115.52
X138.376Y-118.06
X138.376Y-120.6
X138.376Y-123.14
X138.376Y-125.68
X138.376Y-128.22
X138.376Y-130.76
X138.376Y-133.3
X138.376Y-135.84
X142.32Y-55.64
X142.32Y-58.18
X142.32Y-60.72
X142.32Y-63.26
X142.32Y-65.8
X142.32Y-68.34
X144.86Y-53.1
X144.86Y-55.64
X144.86Y-58.18
X144.86Y-60.72
X144.86Y-63.26
X144.86Y-65.8
X144.86Y-68.34
X144.86Y-70.88
X147.4Y-53.1
X147.4Y-55.64
X147.4Y-68.34
X147.4Y-70.88
X149.94Y-53.1
X149.94Y-55.64
X149.94Y-68.34
X149.94Y-70.88
X152.48Y-53.1
X152.48Y-55.64
X152.48Y-68.34
X152.48Y-70.88
X153.616Y-97.74
X153.616Y-100.28
X153.616Y-102.82
X153.616Y-105.36
X153.616Y-107.9
X153.616Y-110.44
X153.616Y-112.98
X153.616Y-115.52
X153.616Y-118.06
X153.616Y-120.6
X153.616Y-123.14
X153.616Y-125.68
X153.616Y-128.22
X153.616Y-130.76
X153.616Y-133.3
X153.616Y-135.84
X155.02Y-53.1
X155.02Y-55.64
X155.02Y-68.34
X155.02Y-70.88
X157.56Y-53.1
X157.56Y-55.64
X157.56Y-58.18
X157.56Y-60.72
X157.56Y-63.26
X157.56Y-65.8
X157.56Y-68.34
X157.56Y-70.88
X160.1Y-55.64
X160.1Y-58.18
X160.1Y-60.72
X160.1Y-63.26
X160.1Y-65.8
X160.1Y-68.34
X164.01Y-96.54
X164.01Y-99.08
X164.01Y-101.62
X164.01Y-104.16
X164.01Y-106.7
X164.01Y-109.24
X164.01Y-111.78
X164.01Y-114.32
X164.01Y-116.86
X166.55Y-94.0
X166.55Y-96.54
X166.55Y-99.08
X166.55Y-101.62
X166.55Y-104.16
X166.55Y-106.7
X166.55Y-109.24
X166.55Y-111.78
X166.55Y-114.32
X166.55Y-116.86
X166.55Y-119.4
X169.09Y-94.0
X169.09Y-96.54
X169.09Y-116.86
X169.09Y-119.4
X171.63Y-94.0
X171.63Y-96.54
X171.63Y-116.86
X171.63Y-119.4
X174.17Y-94.0
X174.17Y-96.54
X174.17Y-116.86
X174.17Y-119.4
X176.71Y-94.0
X176.71Y-96.54
X176.71Y-116.86
X176.71Y-119.4
X179.25Y-94.0
X179.25Y-96.54
X179.25Y-116.86
X179.25Y-119.4
X181.29Y-68.88
X181.29Y-76.5
X181.79Y-94.0
X181.79Y-96.54
X181.79Y-116.86
X181.79Y-119.4
X184.33Y-94.0
X184.33Y-96.54
X184.33Y-116.86
X184.33Y-119.4
X186.87Y-94.0
X186.87Y-96.54
X186.87Y-99.08
X186.87Y-101.62
X186.87Y-104.16
X186.87Y-106.7
X186.87Y-109.24
X186.87Y-111.78
X186.87Y-114.32
X186.87Y-116.86
X186.87Y-119.4
X188.91Y-68.88
X188.91Y-76.5
X189.41Y-96.54
X189.41Y-99.08
X189.41Y-101.62
X189.41Y-104.16
X189.41Y-106.7
X189.41Y-109.24
X189.41Y-111.78
X189.41Y-114.32
X189.41Y-116.86
T5
X127.675Y-107.75
X127.675Y-110.29
X127.675Y-112.83
X127.675Y-115.37
X127.675Y-117.91
X127.675Y-120.45
X133.01Y-46.67
X133.01Y-49.21
X133.01Y-51.75
X133.01Y-54.29
X133.01Y-56.83
X133.01Y-59.37
X133.01Y-61.91
X133.01Y-64.45
X133.01Y-66.99
X133.01Y-69.53
X142.35Y-46.89
X144.89Y-46.89
X147.43Y-46.89
X149.97Y-46.89
X152.51Y-46.89
X155.05Y-46.89
X194.375Y-76.02
X194.375Y-78.56
X194.375Y-81.1
X194.375Y-83.64
X194.375Y-86.18
X194.375Y-88.72
T3
X109.73Y-52.34G85X109.73Y-51.34
G05
X109.73Y-56.34G85X109.73Y-55.34
G05
X113.59Y-52.34G85X113.59Y-51.34
G05
X113.59Y-56.34G85X113.59Y-55.34
G05
M30
