%TF.GenerationSoftware,KiCad,Pcbnew,8.0.8-8.0.8-0~ubuntu24.04.1*%
%TF.CreationDate,2025-02-16T17:21:07-06:00*%
%TF.ProjectId,SingleBoardComputer,53696e67-6c65-4426-9f61-7264436f6d70,2.0*%
%TF.SameCoordinates,Original*%
%TF.FileFunction,Drillmap*%
%TF.FilePolarity,Positive*%
%FSLAX45Y45*%
G04 Gerber Fmt 4.5, Leading zero omitted, Abs format (unit mm)*
G04 Created by KiCad (PCBNEW 8.0.8-8.0.8-0~ubuntu24.04.1) date 2025-02-16 17:21:07*
%MOMM*%
%LPD*%
G01*
G04 APERTURE LIST*
%ADD10C,0.050000*%
%ADD11C,0.200000*%
G04 APERTURE END LIST*
D10*
X10286020Y-4334020D02*
X19786020Y-4334020D01*
X19786020Y-13834020D01*
X10286020Y-13834020D01*
X10286020Y-4334020D01*
D11*
X10544297Y-14148004D02*
X10544297Y-13948004D01*
X10544297Y-13948004D02*
X10591916Y-13948004D01*
X10591916Y-13948004D02*
X10620487Y-13957528D01*
X10620487Y-13957528D02*
X10639535Y-13976575D01*
X10639535Y-13976575D02*
X10649059Y-13995623D01*
X10649059Y-13995623D02*
X10658583Y-14033718D01*
X10658583Y-14033718D02*
X10658583Y-14062289D01*
X10658583Y-14062289D02*
X10649059Y-14100385D01*
X10649059Y-14100385D02*
X10639535Y-14119432D01*
X10639535Y-14119432D02*
X10620487Y-14138480D01*
X10620487Y-14138480D02*
X10591916Y-14148004D01*
X10591916Y-14148004D02*
X10544297Y-14148004D01*
X10744297Y-14148004D02*
X10744297Y-14014670D01*
X10744297Y-14052766D02*
X10753821Y-14033718D01*
X10753821Y-14033718D02*
X10763344Y-14024194D01*
X10763344Y-14024194D02*
X10782392Y-14014670D01*
X10782392Y-14014670D02*
X10801440Y-14014670D01*
X10868106Y-14148004D02*
X10868106Y-14014670D01*
X10868106Y-13948004D02*
X10858583Y-13957528D01*
X10858583Y-13957528D02*
X10868106Y-13967051D01*
X10868106Y-13967051D02*
X10877630Y-13957528D01*
X10877630Y-13957528D02*
X10868106Y-13948004D01*
X10868106Y-13948004D02*
X10868106Y-13967051D01*
X10991916Y-14148004D02*
X10972868Y-14138480D01*
X10972868Y-14138480D02*
X10963344Y-14119432D01*
X10963344Y-14119432D02*
X10963344Y-13948004D01*
X11096678Y-14148004D02*
X11077630Y-14138480D01*
X11077630Y-14138480D02*
X11068106Y-14119432D01*
X11068106Y-14119432D02*
X11068106Y-13948004D01*
X11325249Y-14148004D02*
X11325249Y-13948004D01*
X11325249Y-13948004D02*
X11391916Y-14090861D01*
X11391916Y-14090861D02*
X11458582Y-13948004D01*
X11458582Y-13948004D02*
X11458582Y-14148004D01*
X11639535Y-14148004D02*
X11639535Y-14043242D01*
X11639535Y-14043242D02*
X11630011Y-14024194D01*
X11630011Y-14024194D02*
X11610963Y-14014670D01*
X11610963Y-14014670D02*
X11572868Y-14014670D01*
X11572868Y-14014670D02*
X11553821Y-14024194D01*
X11639535Y-14138480D02*
X11620487Y-14148004D01*
X11620487Y-14148004D02*
X11572868Y-14148004D01*
X11572868Y-14148004D02*
X11553821Y-14138480D01*
X11553821Y-14138480D02*
X11544297Y-14119432D01*
X11544297Y-14119432D02*
X11544297Y-14100385D01*
X11544297Y-14100385D02*
X11553821Y-14081337D01*
X11553821Y-14081337D02*
X11572868Y-14071813D01*
X11572868Y-14071813D02*
X11620487Y-14071813D01*
X11620487Y-14071813D02*
X11639535Y-14062289D01*
X11734773Y-14014670D02*
X11734773Y-14214670D01*
X11734773Y-14024194D02*
X11753821Y-14014670D01*
X11753821Y-14014670D02*
X11791916Y-14014670D01*
X11791916Y-14014670D02*
X11810963Y-14024194D01*
X11810963Y-14024194D02*
X11820487Y-14033718D01*
X11820487Y-14033718D02*
X11830011Y-14052766D01*
X11830011Y-14052766D02*
X11830011Y-14109908D01*
X11830011Y-14109908D02*
X11820487Y-14128956D01*
X11820487Y-14128956D02*
X11810963Y-14138480D01*
X11810963Y-14138480D02*
X11791916Y-14148004D01*
X11791916Y-14148004D02*
X11753821Y-14148004D01*
X11753821Y-14148004D02*
X11734773Y-14138480D01*
X11915725Y-14128956D02*
X11925249Y-14138480D01*
X11925249Y-14138480D02*
X11915725Y-14148004D01*
X11915725Y-14148004D02*
X11906202Y-14138480D01*
X11906202Y-14138480D02*
X11915725Y-14128956D01*
X11915725Y-14128956D02*
X11915725Y-14148004D01*
X11915725Y-14024194D02*
X11925249Y-14033718D01*
X11925249Y-14033718D02*
X11915725Y-14043242D01*
X11915725Y-14043242D02*
X11906202Y-14033718D01*
X11906202Y-14033718D02*
X11915725Y-14024194D01*
X11915725Y-14024194D02*
X11915725Y-14043242D01*
M02*
