G04 #@! TF.GenerationSoftware,KiCad,Pcbnew,8.0.8-8.0.8-0~ubuntu24.04.1*
G04 #@! TF.CreationDate,2025-02-16T17:20:59-06:00*
G04 #@! TF.ProjectId,SingleBoardComputer,53696e67-6c65-4426-9f61-7264436f6d70,2.0*
G04 #@! TF.SameCoordinates,Original*
G04 #@! TF.FileFunction,Legend,Bot*
G04 #@! TF.FilePolarity,Positive*
%FSLAX46Y46*%
G04 Gerber Fmt 4.6, Leading zero omitted, Abs format (unit mm)*
G04 Created by KiCad (PCBNEW 8.0.8-8.0.8-0~ubuntu24.04.1) date 2025-02-16 17:20:59*
%MOMM*%
%LPD*%
G01*
G04 APERTURE LIST*
%ADD10C,0.010000*%
%ADD11R,1.700000X1.700000*%
%ADD12O,1.700000X1.700000*%
%ADD13R,2.400000X1.600000*%
%ADD14O,2.400000X1.600000*%
%ADD15R,1.422400X1.422400*%
%ADD16C,1.422400*%
%ADD17R,1.600000X1.600000*%
%ADD18C,1.600000*%
G04 APERTURE END LIST*
%LPC*%
D10*
X109967200Y-50842200D02*
X109985200Y-50844200D01*
X110003200Y-50848200D01*
X110021200Y-50852200D01*
X110038200Y-50857200D01*
X110055200Y-50863200D01*
X110072200Y-50870200D01*
X110089200Y-50878200D01*
X110105200Y-50887200D01*
X110121200Y-50896200D01*
X110136200Y-50907200D01*
X110150200Y-50918200D01*
X110164200Y-50930200D01*
X110177200Y-50943200D01*
X110190200Y-50956200D01*
X110202200Y-50970200D01*
X110213200Y-50984200D01*
X110224200Y-50999200D01*
X110233200Y-51015200D01*
X110242200Y-51031200D01*
X110250200Y-51048200D01*
X110257200Y-51065200D01*
X110263200Y-51082200D01*
X110268200Y-51099200D01*
X110272200Y-51117200D01*
X110276200Y-51135200D01*
X110278200Y-51153200D01*
X110280200Y-51172200D01*
X110280200Y-51190200D01*
X110280200Y-52490200D01*
X110280200Y-52508200D01*
X110278200Y-52527200D01*
X110276200Y-52545200D01*
X110272200Y-52563200D01*
X110268200Y-52581200D01*
X110263200Y-52598200D01*
X110257200Y-52615200D01*
X110250200Y-52632200D01*
X110242200Y-52649200D01*
X110233200Y-52665200D01*
X110224200Y-52681200D01*
X110213200Y-52696200D01*
X110202200Y-52710200D01*
X110190200Y-52724200D01*
X110177200Y-52737200D01*
X110164200Y-52750200D01*
X110150200Y-52762200D01*
X110136200Y-52773200D01*
X110121200Y-52784200D01*
X110105200Y-52793200D01*
X110089200Y-52802200D01*
X110072200Y-52810200D01*
X110055200Y-52817200D01*
X110038200Y-52823200D01*
X110021200Y-52828200D01*
X110003200Y-52832200D01*
X109985200Y-52836200D01*
X109967200Y-52838200D01*
X109948200Y-52840200D01*
X109930200Y-52840200D01*
X109530200Y-52840200D01*
X109512200Y-52840200D01*
X109493200Y-52838200D01*
X109475200Y-52836200D01*
X109457200Y-52832200D01*
X109439200Y-52828200D01*
X109422200Y-52823200D01*
X109405200Y-52817200D01*
X109388200Y-52810200D01*
X109371200Y-52802200D01*
X109355200Y-52793200D01*
X109339200Y-52784200D01*
X109324200Y-52773200D01*
X109310200Y-52762200D01*
X109296200Y-52750200D01*
X109283200Y-52737200D01*
X109270200Y-52724200D01*
X109258200Y-52710200D01*
X109247200Y-52696200D01*
X109236200Y-52681200D01*
X109227200Y-52665200D01*
X109218200Y-52649200D01*
X109210200Y-52632200D01*
X109203200Y-52615200D01*
X109197200Y-52598200D01*
X109192200Y-52581200D01*
X109188200Y-52563200D01*
X109184200Y-52545200D01*
X109182200Y-52527200D01*
X109180200Y-52508200D01*
X109180200Y-52490200D01*
X109180200Y-51190200D01*
X109180200Y-51172200D01*
X109182200Y-51153200D01*
X109184200Y-51135200D01*
X109188200Y-51117200D01*
X109192200Y-51099200D01*
X109197200Y-51082200D01*
X109203200Y-51065200D01*
X109210200Y-51048200D01*
X109218200Y-51031200D01*
X109227200Y-51015200D01*
X109236200Y-50999200D01*
X109247200Y-50984200D01*
X109258200Y-50970200D01*
X109270200Y-50956200D01*
X109283200Y-50943200D01*
X109296200Y-50930200D01*
X109310200Y-50918200D01*
X109324200Y-50907200D01*
X109339200Y-50896200D01*
X109355200Y-50887200D01*
X109371200Y-50878200D01*
X109388200Y-50870200D01*
X109405200Y-50863200D01*
X109422200Y-50857200D01*
X109439200Y-50852200D01*
X109457200Y-50848200D01*
X109475200Y-50844200D01*
X109493200Y-50842200D01*
X109512200Y-50840200D01*
X109530200Y-50840200D01*
X109930200Y-50840200D01*
X109948200Y-50840200D01*
X109967200Y-50842200D01*
G36*
X109967200Y-50842200D02*
G01*
X109985200Y-50844200D01*
X110003200Y-50848200D01*
X110021200Y-50852200D01*
X110038200Y-50857200D01*
X110055200Y-50863200D01*
X110072200Y-50870200D01*
X110089200Y-50878200D01*
X110105200Y-50887200D01*
X110121200Y-50896200D01*
X110136200Y-50907200D01*
X110150200Y-50918200D01*
X110164200Y-50930200D01*
X110177200Y-50943200D01*
X110190200Y-50956200D01*
X110202200Y-50970200D01*
X110213200Y-50984200D01*
X110224200Y-50999200D01*
X110233200Y-51015200D01*
X110242200Y-51031200D01*
X110250200Y-51048200D01*
X110257200Y-51065200D01*
X110263200Y-51082200D01*
X110268200Y-51099200D01*
X110272200Y-51117200D01*
X110276200Y-51135200D01*
X110278200Y-51153200D01*
X110280200Y-51172200D01*
X110280200Y-51190200D01*
X110280200Y-52490200D01*
X110280200Y-52508200D01*
X110278200Y-52527200D01*
X110276200Y-52545200D01*
X110272200Y-52563200D01*
X110268200Y-52581200D01*
X110263200Y-52598200D01*
X110257200Y-52615200D01*
X110250200Y-52632200D01*
X110242200Y-52649200D01*
X110233200Y-52665200D01*
X110224200Y-52681200D01*
X110213200Y-52696200D01*
X110202200Y-52710200D01*
X110190200Y-52724200D01*
X110177200Y-52737200D01*
X110164200Y-52750200D01*
X110150200Y-52762200D01*
X110136200Y-52773200D01*
X110121200Y-52784200D01*
X110105200Y-52793200D01*
X110089200Y-52802200D01*
X110072200Y-52810200D01*
X110055200Y-52817200D01*
X110038200Y-52823200D01*
X110021200Y-52828200D01*
X110003200Y-52832200D01*
X109985200Y-52836200D01*
X109967200Y-52838200D01*
X109948200Y-52840200D01*
X109930200Y-52840200D01*
X109530200Y-52840200D01*
X109512200Y-52840200D01*
X109493200Y-52838200D01*
X109475200Y-52836200D01*
X109457200Y-52832200D01*
X109439200Y-52828200D01*
X109422200Y-52823200D01*
X109405200Y-52817200D01*
X109388200Y-52810200D01*
X109371200Y-52802200D01*
X109355200Y-52793200D01*
X109339200Y-52784200D01*
X109324200Y-52773200D01*
X109310200Y-52762200D01*
X109296200Y-52750200D01*
X109283200Y-52737200D01*
X109270200Y-52724200D01*
X109258200Y-52710200D01*
X109247200Y-52696200D01*
X109236200Y-52681200D01*
X109227200Y-52665200D01*
X109218200Y-52649200D01*
X109210200Y-52632200D01*
X109203200Y-52615200D01*
X109197200Y-52598200D01*
X109192200Y-52581200D01*
X109188200Y-52563200D01*
X109184200Y-52545200D01*
X109182200Y-52527200D01*
X109180200Y-52508200D01*
X109180200Y-52490200D01*
X109180200Y-51190200D01*
X109180200Y-51172200D01*
X109182200Y-51153200D01*
X109184200Y-51135200D01*
X109188200Y-51117200D01*
X109192200Y-51099200D01*
X109197200Y-51082200D01*
X109203200Y-51065200D01*
X109210200Y-51048200D01*
X109218200Y-51031200D01*
X109227200Y-51015200D01*
X109236200Y-50999200D01*
X109247200Y-50984200D01*
X109258200Y-50970200D01*
X109270200Y-50956200D01*
X109283200Y-50943200D01*
X109296200Y-50930200D01*
X109310200Y-50918200D01*
X109324200Y-50907200D01*
X109339200Y-50896200D01*
X109355200Y-50887200D01*
X109371200Y-50878200D01*
X109388200Y-50870200D01*
X109405200Y-50863200D01*
X109422200Y-50857200D01*
X109439200Y-50852200D01*
X109457200Y-50848200D01*
X109475200Y-50844200D01*
X109493200Y-50842200D01*
X109512200Y-50840200D01*
X109530200Y-50840200D01*
X109930200Y-50840200D01*
X109948200Y-50840200D01*
X109967200Y-50842200D01*
G37*
X109967200Y-54842200D02*
X109985200Y-54844200D01*
X110003200Y-54848200D01*
X110021200Y-54852200D01*
X110038200Y-54857200D01*
X110055200Y-54863200D01*
X110072200Y-54870200D01*
X110089200Y-54878200D01*
X110105200Y-54887200D01*
X110121200Y-54896200D01*
X110136200Y-54907200D01*
X110150200Y-54918200D01*
X110164200Y-54930200D01*
X110177200Y-54943200D01*
X110190200Y-54956200D01*
X110202200Y-54970200D01*
X110213200Y-54984200D01*
X110224200Y-54999200D01*
X110233200Y-55015200D01*
X110242200Y-55031200D01*
X110250200Y-55048200D01*
X110257200Y-55065200D01*
X110263200Y-55082200D01*
X110268200Y-55099200D01*
X110272200Y-55117200D01*
X110276200Y-55135200D01*
X110278200Y-55153200D01*
X110280200Y-55172200D01*
X110280200Y-55190200D01*
X110280200Y-56490200D01*
X110280200Y-56508200D01*
X110278200Y-56527200D01*
X110276200Y-56545200D01*
X110272200Y-56563200D01*
X110268200Y-56581200D01*
X110263200Y-56598200D01*
X110257200Y-56615200D01*
X110250200Y-56632200D01*
X110242200Y-56649200D01*
X110233200Y-56665200D01*
X110224200Y-56681200D01*
X110213200Y-56696200D01*
X110202200Y-56710200D01*
X110190200Y-56724200D01*
X110177200Y-56737200D01*
X110164200Y-56750200D01*
X110150200Y-56762200D01*
X110136200Y-56773200D01*
X110121200Y-56784200D01*
X110105200Y-56793200D01*
X110089200Y-56802200D01*
X110072200Y-56810200D01*
X110055200Y-56817200D01*
X110038200Y-56823200D01*
X110021200Y-56828200D01*
X110003200Y-56832200D01*
X109985200Y-56836200D01*
X109967200Y-56838200D01*
X109948200Y-56840200D01*
X109930200Y-56840200D01*
X109530200Y-56840200D01*
X109512200Y-56840200D01*
X109493200Y-56838200D01*
X109475200Y-56836200D01*
X109457200Y-56832200D01*
X109439200Y-56828200D01*
X109422200Y-56823200D01*
X109405200Y-56817200D01*
X109388200Y-56810200D01*
X109371200Y-56802200D01*
X109355200Y-56793200D01*
X109339200Y-56784200D01*
X109324200Y-56773200D01*
X109310200Y-56762200D01*
X109296200Y-56750200D01*
X109283200Y-56737200D01*
X109270200Y-56724200D01*
X109258200Y-56710200D01*
X109247200Y-56696200D01*
X109236200Y-56681200D01*
X109227200Y-56665200D01*
X109218200Y-56649200D01*
X109210200Y-56632200D01*
X109203200Y-56615200D01*
X109197200Y-56598200D01*
X109192200Y-56581200D01*
X109188200Y-56563200D01*
X109184200Y-56545200D01*
X109182200Y-56527200D01*
X109180200Y-56508200D01*
X109180200Y-56490200D01*
X109180200Y-55190200D01*
X109180200Y-55172200D01*
X109182200Y-55153200D01*
X109184200Y-55135200D01*
X109188200Y-55117200D01*
X109192200Y-55099200D01*
X109197200Y-55082200D01*
X109203200Y-55065200D01*
X109210200Y-55048200D01*
X109218200Y-55031200D01*
X109227200Y-55015200D01*
X109236200Y-54999200D01*
X109247200Y-54984200D01*
X109258200Y-54970200D01*
X109270200Y-54956200D01*
X109283200Y-54943200D01*
X109296200Y-54930200D01*
X109310200Y-54918200D01*
X109324200Y-54907200D01*
X109339200Y-54896200D01*
X109355200Y-54887200D01*
X109371200Y-54878200D01*
X109388200Y-54870200D01*
X109405200Y-54863200D01*
X109422200Y-54857200D01*
X109439200Y-54852200D01*
X109457200Y-54848200D01*
X109475200Y-54844200D01*
X109493200Y-54842200D01*
X109512200Y-54840200D01*
X109530200Y-54840200D01*
X109930200Y-54840200D01*
X109948200Y-54840200D01*
X109967200Y-54842200D01*
G36*
X109967200Y-54842200D02*
G01*
X109985200Y-54844200D01*
X110003200Y-54848200D01*
X110021200Y-54852200D01*
X110038200Y-54857200D01*
X110055200Y-54863200D01*
X110072200Y-54870200D01*
X110089200Y-54878200D01*
X110105200Y-54887200D01*
X110121200Y-54896200D01*
X110136200Y-54907200D01*
X110150200Y-54918200D01*
X110164200Y-54930200D01*
X110177200Y-54943200D01*
X110190200Y-54956200D01*
X110202200Y-54970200D01*
X110213200Y-54984200D01*
X110224200Y-54999200D01*
X110233200Y-55015200D01*
X110242200Y-55031200D01*
X110250200Y-55048200D01*
X110257200Y-55065200D01*
X110263200Y-55082200D01*
X110268200Y-55099200D01*
X110272200Y-55117200D01*
X110276200Y-55135200D01*
X110278200Y-55153200D01*
X110280200Y-55172200D01*
X110280200Y-55190200D01*
X110280200Y-56490200D01*
X110280200Y-56508200D01*
X110278200Y-56527200D01*
X110276200Y-56545200D01*
X110272200Y-56563200D01*
X110268200Y-56581200D01*
X110263200Y-56598200D01*
X110257200Y-56615200D01*
X110250200Y-56632200D01*
X110242200Y-56649200D01*
X110233200Y-56665200D01*
X110224200Y-56681200D01*
X110213200Y-56696200D01*
X110202200Y-56710200D01*
X110190200Y-56724200D01*
X110177200Y-56737200D01*
X110164200Y-56750200D01*
X110150200Y-56762200D01*
X110136200Y-56773200D01*
X110121200Y-56784200D01*
X110105200Y-56793200D01*
X110089200Y-56802200D01*
X110072200Y-56810200D01*
X110055200Y-56817200D01*
X110038200Y-56823200D01*
X110021200Y-56828200D01*
X110003200Y-56832200D01*
X109985200Y-56836200D01*
X109967200Y-56838200D01*
X109948200Y-56840200D01*
X109930200Y-56840200D01*
X109530200Y-56840200D01*
X109512200Y-56840200D01*
X109493200Y-56838200D01*
X109475200Y-56836200D01*
X109457200Y-56832200D01*
X109439200Y-56828200D01*
X109422200Y-56823200D01*
X109405200Y-56817200D01*
X109388200Y-56810200D01*
X109371200Y-56802200D01*
X109355200Y-56793200D01*
X109339200Y-56784200D01*
X109324200Y-56773200D01*
X109310200Y-56762200D01*
X109296200Y-56750200D01*
X109283200Y-56737200D01*
X109270200Y-56724200D01*
X109258200Y-56710200D01*
X109247200Y-56696200D01*
X109236200Y-56681200D01*
X109227200Y-56665200D01*
X109218200Y-56649200D01*
X109210200Y-56632200D01*
X109203200Y-56615200D01*
X109197200Y-56598200D01*
X109192200Y-56581200D01*
X109188200Y-56563200D01*
X109184200Y-56545200D01*
X109182200Y-56527200D01*
X109180200Y-56508200D01*
X109180200Y-56490200D01*
X109180200Y-55190200D01*
X109180200Y-55172200D01*
X109182200Y-55153200D01*
X109184200Y-55135200D01*
X109188200Y-55117200D01*
X109192200Y-55099200D01*
X109197200Y-55082200D01*
X109203200Y-55065200D01*
X109210200Y-55048200D01*
X109218200Y-55031200D01*
X109227200Y-55015200D01*
X109236200Y-54999200D01*
X109247200Y-54984200D01*
X109258200Y-54970200D01*
X109270200Y-54956200D01*
X109283200Y-54943200D01*
X109296200Y-54930200D01*
X109310200Y-54918200D01*
X109324200Y-54907200D01*
X109339200Y-54896200D01*
X109355200Y-54887200D01*
X109371200Y-54878200D01*
X109388200Y-54870200D01*
X109405200Y-54863200D01*
X109422200Y-54857200D01*
X109439200Y-54852200D01*
X109457200Y-54848200D01*
X109475200Y-54844200D01*
X109493200Y-54842200D01*
X109512200Y-54840200D01*
X109530200Y-54840200D01*
X109930200Y-54840200D01*
X109948200Y-54840200D01*
X109967200Y-54842200D01*
G37*
X111136200Y-53891200D02*
X111149200Y-53893200D01*
X111162200Y-53895200D01*
X111175200Y-53899200D01*
X111187200Y-53902200D01*
X111200200Y-53907200D01*
X111212200Y-53912200D01*
X111223200Y-53917200D01*
X111235200Y-53923200D01*
X111246200Y-53930200D01*
X111257200Y-53938200D01*
X111267200Y-53946200D01*
X111277200Y-53954200D01*
X111287200Y-53963200D01*
X111296200Y-53973200D01*
X111304200Y-53983200D01*
X111312200Y-53993200D01*
X111320200Y-54004200D01*
X111327200Y-54015200D01*
X111333200Y-54027200D01*
X111338200Y-54038200D01*
X111343200Y-54050200D01*
X111348200Y-54063200D01*
X111351200Y-54075200D01*
X111355200Y-54088200D01*
X111357200Y-54101200D01*
X111359200Y-54114200D01*
X111360200Y-54127200D01*
X111360200Y-54140200D01*
X111360200Y-54440200D01*
X111360200Y-54453200D01*
X111359200Y-54466200D01*
X111357200Y-54479200D01*
X111355200Y-54492200D01*
X111351200Y-54505200D01*
X111348200Y-54517200D01*
X111343200Y-54530200D01*
X111338200Y-54542200D01*
X111333200Y-54553200D01*
X111327200Y-54565200D01*
X111320200Y-54576200D01*
X111312200Y-54587200D01*
X111304200Y-54597200D01*
X111296200Y-54607200D01*
X111287200Y-54617200D01*
X111277200Y-54626200D01*
X111267200Y-54634200D01*
X111257200Y-54642200D01*
X111246200Y-54650200D01*
X111235200Y-54657200D01*
X111223200Y-54663200D01*
X111212200Y-54668200D01*
X111200200Y-54673200D01*
X111187200Y-54678200D01*
X111175200Y-54681200D01*
X111162200Y-54685200D01*
X111149200Y-54687200D01*
X111136200Y-54689200D01*
X111123200Y-54690200D01*
X111110200Y-54690200D01*
X110810200Y-54690200D01*
X110797200Y-54690200D01*
X110784200Y-54689200D01*
X110771200Y-54687200D01*
X110758200Y-54685200D01*
X110745200Y-54681200D01*
X110733200Y-54678200D01*
X110720200Y-54673200D01*
X110708200Y-54668200D01*
X110697200Y-54663200D01*
X110685200Y-54657200D01*
X110674200Y-54650200D01*
X110663200Y-54642200D01*
X110653200Y-54634200D01*
X110643200Y-54626200D01*
X110633200Y-54617200D01*
X110624200Y-54607200D01*
X110616200Y-54597200D01*
X110608200Y-54587200D01*
X110600200Y-54576200D01*
X110593200Y-54565200D01*
X110587200Y-54553200D01*
X110582200Y-54542200D01*
X110577200Y-54530200D01*
X110572200Y-54517200D01*
X110569200Y-54505200D01*
X110565200Y-54492200D01*
X110563200Y-54479200D01*
X110561200Y-54466200D01*
X110560200Y-54453200D01*
X110560200Y-54440200D01*
X110560200Y-54140200D01*
X110560200Y-54127200D01*
X110561200Y-54114200D01*
X110563200Y-54101200D01*
X110565200Y-54088200D01*
X110569200Y-54075200D01*
X110572200Y-54063200D01*
X110577200Y-54050200D01*
X110582200Y-54038200D01*
X110587200Y-54027200D01*
X110593200Y-54015200D01*
X110600200Y-54004200D01*
X110608200Y-53993200D01*
X110616200Y-53983200D01*
X110624200Y-53973200D01*
X110633200Y-53963200D01*
X110643200Y-53954200D01*
X110653200Y-53946200D01*
X110663200Y-53938200D01*
X110674200Y-53930200D01*
X110685200Y-53923200D01*
X110697200Y-53917200D01*
X110708200Y-53912200D01*
X110720200Y-53907200D01*
X110733200Y-53902200D01*
X110745200Y-53899200D01*
X110758200Y-53895200D01*
X110771200Y-53893200D01*
X110784200Y-53891200D01*
X110797200Y-53890200D01*
X110810200Y-53890200D01*
X111110200Y-53890200D01*
X111123200Y-53890200D01*
X111136200Y-53891200D01*
G36*
X111136200Y-53891200D02*
G01*
X111149200Y-53893200D01*
X111162200Y-53895200D01*
X111175200Y-53899200D01*
X111187200Y-53902200D01*
X111200200Y-53907200D01*
X111212200Y-53912200D01*
X111223200Y-53917200D01*
X111235200Y-53923200D01*
X111246200Y-53930200D01*
X111257200Y-53938200D01*
X111267200Y-53946200D01*
X111277200Y-53954200D01*
X111287200Y-53963200D01*
X111296200Y-53973200D01*
X111304200Y-53983200D01*
X111312200Y-53993200D01*
X111320200Y-54004200D01*
X111327200Y-54015200D01*
X111333200Y-54027200D01*
X111338200Y-54038200D01*
X111343200Y-54050200D01*
X111348200Y-54063200D01*
X111351200Y-54075200D01*
X111355200Y-54088200D01*
X111357200Y-54101200D01*
X111359200Y-54114200D01*
X111360200Y-54127200D01*
X111360200Y-54140200D01*
X111360200Y-54440200D01*
X111360200Y-54453200D01*
X111359200Y-54466200D01*
X111357200Y-54479200D01*
X111355200Y-54492200D01*
X111351200Y-54505200D01*
X111348200Y-54517200D01*
X111343200Y-54530200D01*
X111338200Y-54542200D01*
X111333200Y-54553200D01*
X111327200Y-54565200D01*
X111320200Y-54576200D01*
X111312200Y-54587200D01*
X111304200Y-54597200D01*
X111296200Y-54607200D01*
X111287200Y-54617200D01*
X111277200Y-54626200D01*
X111267200Y-54634200D01*
X111257200Y-54642200D01*
X111246200Y-54650200D01*
X111235200Y-54657200D01*
X111223200Y-54663200D01*
X111212200Y-54668200D01*
X111200200Y-54673200D01*
X111187200Y-54678200D01*
X111175200Y-54681200D01*
X111162200Y-54685200D01*
X111149200Y-54687200D01*
X111136200Y-54689200D01*
X111123200Y-54690200D01*
X111110200Y-54690200D01*
X110810200Y-54690200D01*
X110797200Y-54690200D01*
X110784200Y-54689200D01*
X110771200Y-54687200D01*
X110758200Y-54685200D01*
X110745200Y-54681200D01*
X110733200Y-54678200D01*
X110720200Y-54673200D01*
X110708200Y-54668200D01*
X110697200Y-54663200D01*
X110685200Y-54657200D01*
X110674200Y-54650200D01*
X110663200Y-54642200D01*
X110653200Y-54634200D01*
X110643200Y-54626200D01*
X110633200Y-54617200D01*
X110624200Y-54607200D01*
X110616200Y-54597200D01*
X110608200Y-54587200D01*
X110600200Y-54576200D01*
X110593200Y-54565200D01*
X110587200Y-54553200D01*
X110582200Y-54542200D01*
X110577200Y-54530200D01*
X110572200Y-54517200D01*
X110569200Y-54505200D01*
X110565200Y-54492200D01*
X110563200Y-54479200D01*
X110561200Y-54466200D01*
X110560200Y-54453200D01*
X110560200Y-54440200D01*
X110560200Y-54140200D01*
X110560200Y-54127200D01*
X110561200Y-54114200D01*
X110563200Y-54101200D01*
X110565200Y-54088200D01*
X110569200Y-54075200D01*
X110572200Y-54063200D01*
X110577200Y-54050200D01*
X110582200Y-54038200D01*
X110587200Y-54027200D01*
X110593200Y-54015200D01*
X110600200Y-54004200D01*
X110608200Y-53993200D01*
X110616200Y-53983200D01*
X110624200Y-53973200D01*
X110633200Y-53963200D01*
X110643200Y-53954200D01*
X110653200Y-53946200D01*
X110663200Y-53938200D01*
X110674200Y-53930200D01*
X110685200Y-53923200D01*
X110697200Y-53917200D01*
X110708200Y-53912200D01*
X110720200Y-53907200D01*
X110733200Y-53902200D01*
X110745200Y-53899200D01*
X110758200Y-53895200D01*
X110771200Y-53893200D01*
X110784200Y-53891200D01*
X110797200Y-53890200D01*
X110810200Y-53890200D01*
X111110200Y-53890200D01*
X111123200Y-53890200D01*
X111136200Y-53891200D01*
G37*
X111136200Y-54791200D02*
X111149200Y-54793200D01*
X111162200Y-54795200D01*
X111175200Y-54799200D01*
X111187200Y-54802200D01*
X111200200Y-54807200D01*
X111212200Y-54812200D01*
X111223200Y-54817200D01*
X111235200Y-54823200D01*
X111246200Y-54830200D01*
X111257200Y-54838200D01*
X111267200Y-54846200D01*
X111277200Y-54854200D01*
X111287200Y-54863200D01*
X111296200Y-54873200D01*
X111304200Y-54883200D01*
X111312200Y-54893200D01*
X111320200Y-54904200D01*
X111327200Y-54915200D01*
X111333200Y-54927200D01*
X111338200Y-54938200D01*
X111343200Y-54950200D01*
X111348200Y-54963200D01*
X111351200Y-54975200D01*
X111355200Y-54988200D01*
X111357200Y-55001200D01*
X111359200Y-55014200D01*
X111360200Y-55027200D01*
X111360200Y-55040200D01*
X111360200Y-55340200D01*
X111360200Y-55353200D01*
X111359200Y-55366200D01*
X111357200Y-55379200D01*
X111355200Y-55392200D01*
X111351200Y-55405200D01*
X111348200Y-55417200D01*
X111343200Y-55430200D01*
X111338200Y-55442200D01*
X111333200Y-55453200D01*
X111327200Y-55465200D01*
X111320200Y-55476200D01*
X111312200Y-55487200D01*
X111304200Y-55497200D01*
X111296200Y-55507200D01*
X111287200Y-55517200D01*
X111277200Y-55526200D01*
X111267200Y-55534200D01*
X111257200Y-55542200D01*
X111246200Y-55550200D01*
X111235200Y-55557200D01*
X111223200Y-55563200D01*
X111212200Y-55568200D01*
X111200200Y-55573200D01*
X111187200Y-55578200D01*
X111175200Y-55581200D01*
X111162200Y-55585200D01*
X111149200Y-55587200D01*
X111136200Y-55589200D01*
X111123200Y-55590200D01*
X111110200Y-55590200D01*
X110810200Y-55590200D01*
X110797200Y-55590200D01*
X110784200Y-55589200D01*
X110771200Y-55587200D01*
X110758200Y-55585200D01*
X110745200Y-55581200D01*
X110733200Y-55578200D01*
X110720200Y-55573200D01*
X110708200Y-55568200D01*
X110697200Y-55563200D01*
X110685200Y-55557200D01*
X110674200Y-55550200D01*
X110663200Y-55542200D01*
X110653200Y-55534200D01*
X110643200Y-55526200D01*
X110633200Y-55517200D01*
X110624200Y-55507200D01*
X110616200Y-55497200D01*
X110608200Y-55487200D01*
X110600200Y-55476200D01*
X110593200Y-55465200D01*
X110587200Y-55453200D01*
X110582200Y-55442200D01*
X110577200Y-55430200D01*
X110572200Y-55417200D01*
X110569200Y-55405200D01*
X110565200Y-55392200D01*
X110563200Y-55379200D01*
X110561200Y-55366200D01*
X110560200Y-55353200D01*
X110560200Y-55340200D01*
X110560200Y-55040200D01*
X110560200Y-55027200D01*
X110561200Y-55014200D01*
X110563200Y-55001200D01*
X110565200Y-54988200D01*
X110569200Y-54975200D01*
X110572200Y-54963200D01*
X110577200Y-54950200D01*
X110582200Y-54938200D01*
X110587200Y-54927200D01*
X110593200Y-54915200D01*
X110600200Y-54904200D01*
X110608200Y-54893200D01*
X110616200Y-54883200D01*
X110624200Y-54873200D01*
X110633200Y-54863200D01*
X110643200Y-54854200D01*
X110653200Y-54846200D01*
X110663200Y-54838200D01*
X110674200Y-54830200D01*
X110685200Y-54823200D01*
X110697200Y-54817200D01*
X110708200Y-54812200D01*
X110720200Y-54807200D01*
X110733200Y-54802200D01*
X110745200Y-54799200D01*
X110758200Y-54795200D01*
X110771200Y-54793200D01*
X110784200Y-54791200D01*
X110797200Y-54790200D01*
X110810200Y-54790200D01*
X111110200Y-54790200D01*
X111123200Y-54790200D01*
X111136200Y-54791200D01*
G36*
X111136200Y-54791200D02*
G01*
X111149200Y-54793200D01*
X111162200Y-54795200D01*
X111175200Y-54799200D01*
X111187200Y-54802200D01*
X111200200Y-54807200D01*
X111212200Y-54812200D01*
X111223200Y-54817200D01*
X111235200Y-54823200D01*
X111246200Y-54830200D01*
X111257200Y-54838200D01*
X111267200Y-54846200D01*
X111277200Y-54854200D01*
X111287200Y-54863200D01*
X111296200Y-54873200D01*
X111304200Y-54883200D01*
X111312200Y-54893200D01*
X111320200Y-54904200D01*
X111327200Y-54915200D01*
X111333200Y-54927200D01*
X111338200Y-54938200D01*
X111343200Y-54950200D01*
X111348200Y-54963200D01*
X111351200Y-54975200D01*
X111355200Y-54988200D01*
X111357200Y-55001200D01*
X111359200Y-55014200D01*
X111360200Y-55027200D01*
X111360200Y-55040200D01*
X111360200Y-55340200D01*
X111360200Y-55353200D01*
X111359200Y-55366200D01*
X111357200Y-55379200D01*
X111355200Y-55392200D01*
X111351200Y-55405200D01*
X111348200Y-55417200D01*
X111343200Y-55430200D01*
X111338200Y-55442200D01*
X111333200Y-55453200D01*
X111327200Y-55465200D01*
X111320200Y-55476200D01*
X111312200Y-55487200D01*
X111304200Y-55497200D01*
X111296200Y-55507200D01*
X111287200Y-55517200D01*
X111277200Y-55526200D01*
X111267200Y-55534200D01*
X111257200Y-55542200D01*
X111246200Y-55550200D01*
X111235200Y-55557200D01*
X111223200Y-55563200D01*
X111212200Y-55568200D01*
X111200200Y-55573200D01*
X111187200Y-55578200D01*
X111175200Y-55581200D01*
X111162200Y-55585200D01*
X111149200Y-55587200D01*
X111136200Y-55589200D01*
X111123200Y-55590200D01*
X111110200Y-55590200D01*
X110810200Y-55590200D01*
X110797200Y-55590200D01*
X110784200Y-55589200D01*
X110771200Y-55587200D01*
X110758200Y-55585200D01*
X110745200Y-55581200D01*
X110733200Y-55578200D01*
X110720200Y-55573200D01*
X110708200Y-55568200D01*
X110697200Y-55563200D01*
X110685200Y-55557200D01*
X110674200Y-55550200D01*
X110663200Y-55542200D01*
X110653200Y-55534200D01*
X110643200Y-55526200D01*
X110633200Y-55517200D01*
X110624200Y-55507200D01*
X110616200Y-55497200D01*
X110608200Y-55487200D01*
X110600200Y-55476200D01*
X110593200Y-55465200D01*
X110587200Y-55453200D01*
X110582200Y-55442200D01*
X110577200Y-55430200D01*
X110572200Y-55417200D01*
X110569200Y-55405200D01*
X110565200Y-55392200D01*
X110563200Y-55379200D01*
X110561200Y-55366200D01*
X110560200Y-55353200D01*
X110560200Y-55340200D01*
X110560200Y-55040200D01*
X110560200Y-55027200D01*
X110561200Y-55014200D01*
X110563200Y-55001200D01*
X110565200Y-54988200D01*
X110569200Y-54975200D01*
X110572200Y-54963200D01*
X110577200Y-54950200D01*
X110582200Y-54938200D01*
X110587200Y-54927200D01*
X110593200Y-54915200D01*
X110600200Y-54904200D01*
X110608200Y-54893200D01*
X110616200Y-54883200D01*
X110624200Y-54873200D01*
X110633200Y-54863200D01*
X110643200Y-54854200D01*
X110653200Y-54846200D01*
X110663200Y-54838200D01*
X110674200Y-54830200D01*
X110685200Y-54823200D01*
X110697200Y-54817200D01*
X110708200Y-54812200D01*
X110720200Y-54807200D01*
X110733200Y-54802200D01*
X110745200Y-54799200D01*
X110758200Y-54795200D01*
X110771200Y-54793200D01*
X110784200Y-54791200D01*
X110797200Y-54790200D01*
X110810200Y-54790200D01*
X111110200Y-54790200D01*
X111123200Y-54790200D01*
X111136200Y-54791200D01*
G37*
X111136200Y-55741200D02*
X111149200Y-55743200D01*
X111162200Y-55745200D01*
X111175200Y-55749200D01*
X111187200Y-55752200D01*
X111200200Y-55757200D01*
X111212200Y-55762200D01*
X111223200Y-55767200D01*
X111235200Y-55773200D01*
X111246200Y-55780200D01*
X111257200Y-55788200D01*
X111267200Y-55796200D01*
X111277200Y-55804200D01*
X111287200Y-55813200D01*
X111296200Y-55823200D01*
X111304200Y-55833200D01*
X111312200Y-55843200D01*
X111320200Y-55854200D01*
X111327200Y-55865200D01*
X111333200Y-55877200D01*
X111338200Y-55888200D01*
X111343200Y-55900200D01*
X111348200Y-55913200D01*
X111351200Y-55925200D01*
X111355200Y-55938200D01*
X111357200Y-55951200D01*
X111359200Y-55964200D01*
X111360200Y-55977200D01*
X111360200Y-55990200D01*
X111360200Y-56290200D01*
X111360200Y-56303200D01*
X111359200Y-56316200D01*
X111357200Y-56329200D01*
X111355200Y-56342200D01*
X111351200Y-56355200D01*
X111348200Y-56367200D01*
X111343200Y-56380200D01*
X111338200Y-56392200D01*
X111333200Y-56403200D01*
X111327200Y-56415200D01*
X111320200Y-56426200D01*
X111312200Y-56437200D01*
X111304200Y-56447200D01*
X111296200Y-56457200D01*
X111287200Y-56467200D01*
X111277200Y-56476200D01*
X111267200Y-56484200D01*
X111257200Y-56492200D01*
X111246200Y-56500200D01*
X111235200Y-56507200D01*
X111223200Y-56513200D01*
X111212200Y-56518200D01*
X111200200Y-56523200D01*
X111187200Y-56528200D01*
X111175200Y-56531200D01*
X111162200Y-56535200D01*
X111149200Y-56537200D01*
X111136200Y-56539200D01*
X111123200Y-56540200D01*
X111110200Y-56540200D01*
X110810200Y-56540200D01*
X110797200Y-56540200D01*
X110784200Y-56539200D01*
X110771200Y-56537200D01*
X110758200Y-56535200D01*
X110745200Y-56531200D01*
X110733200Y-56528200D01*
X110720200Y-56523200D01*
X110708200Y-56518200D01*
X110697200Y-56513200D01*
X110685200Y-56507200D01*
X110674200Y-56500200D01*
X110663200Y-56492200D01*
X110653200Y-56484200D01*
X110643200Y-56476200D01*
X110633200Y-56467200D01*
X110624200Y-56457200D01*
X110616200Y-56447200D01*
X110608200Y-56437200D01*
X110600200Y-56426200D01*
X110593200Y-56415200D01*
X110587200Y-56403200D01*
X110582200Y-56392200D01*
X110577200Y-56380200D01*
X110572200Y-56367200D01*
X110569200Y-56355200D01*
X110565200Y-56342200D01*
X110563200Y-56329200D01*
X110561200Y-56316200D01*
X110560200Y-56303200D01*
X110560200Y-56290200D01*
X110560200Y-55990200D01*
X110560200Y-55977200D01*
X110561200Y-55964200D01*
X110563200Y-55951200D01*
X110565200Y-55938200D01*
X110569200Y-55925200D01*
X110572200Y-55913200D01*
X110577200Y-55900200D01*
X110582200Y-55888200D01*
X110587200Y-55877200D01*
X110593200Y-55865200D01*
X110600200Y-55854200D01*
X110608200Y-55843200D01*
X110616200Y-55833200D01*
X110624200Y-55823200D01*
X110633200Y-55813200D01*
X110643200Y-55804200D01*
X110653200Y-55796200D01*
X110663200Y-55788200D01*
X110674200Y-55780200D01*
X110685200Y-55773200D01*
X110697200Y-55767200D01*
X110708200Y-55762200D01*
X110720200Y-55757200D01*
X110733200Y-55752200D01*
X110745200Y-55749200D01*
X110758200Y-55745200D01*
X110771200Y-55743200D01*
X110784200Y-55741200D01*
X110797200Y-55740200D01*
X110810200Y-55740200D01*
X111110200Y-55740200D01*
X111123200Y-55740200D01*
X111136200Y-55741200D01*
G36*
X111136200Y-55741200D02*
G01*
X111149200Y-55743200D01*
X111162200Y-55745200D01*
X111175200Y-55749200D01*
X111187200Y-55752200D01*
X111200200Y-55757200D01*
X111212200Y-55762200D01*
X111223200Y-55767200D01*
X111235200Y-55773200D01*
X111246200Y-55780200D01*
X111257200Y-55788200D01*
X111267200Y-55796200D01*
X111277200Y-55804200D01*
X111287200Y-55813200D01*
X111296200Y-55823200D01*
X111304200Y-55833200D01*
X111312200Y-55843200D01*
X111320200Y-55854200D01*
X111327200Y-55865200D01*
X111333200Y-55877200D01*
X111338200Y-55888200D01*
X111343200Y-55900200D01*
X111348200Y-55913200D01*
X111351200Y-55925200D01*
X111355200Y-55938200D01*
X111357200Y-55951200D01*
X111359200Y-55964200D01*
X111360200Y-55977200D01*
X111360200Y-55990200D01*
X111360200Y-56290200D01*
X111360200Y-56303200D01*
X111359200Y-56316200D01*
X111357200Y-56329200D01*
X111355200Y-56342200D01*
X111351200Y-56355200D01*
X111348200Y-56367200D01*
X111343200Y-56380200D01*
X111338200Y-56392200D01*
X111333200Y-56403200D01*
X111327200Y-56415200D01*
X111320200Y-56426200D01*
X111312200Y-56437200D01*
X111304200Y-56447200D01*
X111296200Y-56457200D01*
X111287200Y-56467200D01*
X111277200Y-56476200D01*
X111267200Y-56484200D01*
X111257200Y-56492200D01*
X111246200Y-56500200D01*
X111235200Y-56507200D01*
X111223200Y-56513200D01*
X111212200Y-56518200D01*
X111200200Y-56523200D01*
X111187200Y-56528200D01*
X111175200Y-56531200D01*
X111162200Y-56535200D01*
X111149200Y-56537200D01*
X111136200Y-56539200D01*
X111123200Y-56540200D01*
X111110200Y-56540200D01*
X110810200Y-56540200D01*
X110797200Y-56540200D01*
X110784200Y-56539200D01*
X110771200Y-56537200D01*
X110758200Y-56535200D01*
X110745200Y-56531200D01*
X110733200Y-56528200D01*
X110720200Y-56523200D01*
X110708200Y-56518200D01*
X110697200Y-56513200D01*
X110685200Y-56507200D01*
X110674200Y-56500200D01*
X110663200Y-56492200D01*
X110653200Y-56484200D01*
X110643200Y-56476200D01*
X110633200Y-56467200D01*
X110624200Y-56457200D01*
X110616200Y-56447200D01*
X110608200Y-56437200D01*
X110600200Y-56426200D01*
X110593200Y-56415200D01*
X110587200Y-56403200D01*
X110582200Y-56392200D01*
X110577200Y-56380200D01*
X110572200Y-56367200D01*
X110569200Y-56355200D01*
X110565200Y-56342200D01*
X110563200Y-56329200D01*
X110561200Y-56316200D01*
X110560200Y-56303200D01*
X110560200Y-56290200D01*
X110560200Y-55990200D01*
X110560200Y-55977200D01*
X110561200Y-55964200D01*
X110563200Y-55951200D01*
X110565200Y-55938200D01*
X110569200Y-55925200D01*
X110572200Y-55913200D01*
X110577200Y-55900200D01*
X110582200Y-55888200D01*
X110587200Y-55877200D01*
X110593200Y-55865200D01*
X110600200Y-55854200D01*
X110608200Y-55843200D01*
X110616200Y-55833200D01*
X110624200Y-55823200D01*
X110633200Y-55813200D01*
X110643200Y-55804200D01*
X110653200Y-55796200D01*
X110663200Y-55788200D01*
X110674200Y-55780200D01*
X110685200Y-55773200D01*
X110697200Y-55767200D01*
X110708200Y-55762200D01*
X110720200Y-55757200D01*
X110733200Y-55752200D01*
X110745200Y-55749200D01*
X110758200Y-55745200D01*
X110771200Y-55743200D01*
X110784200Y-55741200D01*
X110797200Y-55740200D01*
X110810200Y-55740200D01*
X111110200Y-55740200D01*
X111123200Y-55740200D01*
X111136200Y-55741200D01*
G37*
X111136200Y-56691200D02*
X111149200Y-56693200D01*
X111162200Y-56695200D01*
X111175200Y-56699200D01*
X111187200Y-56702200D01*
X111200200Y-56707200D01*
X111212200Y-56712200D01*
X111223200Y-56717200D01*
X111235200Y-56723200D01*
X111246200Y-56730200D01*
X111257200Y-56738200D01*
X111267200Y-56746200D01*
X111277200Y-56754200D01*
X111287200Y-56763200D01*
X111296200Y-56773200D01*
X111304200Y-56783200D01*
X111312200Y-56793200D01*
X111320200Y-56804200D01*
X111327200Y-56815200D01*
X111333200Y-56827200D01*
X111338200Y-56838200D01*
X111343200Y-56850200D01*
X111348200Y-56863200D01*
X111351200Y-56875200D01*
X111355200Y-56888200D01*
X111357200Y-56901200D01*
X111359200Y-56914200D01*
X111360200Y-56927200D01*
X111360200Y-56940200D01*
X111360200Y-57240200D01*
X111360200Y-57253200D01*
X111359200Y-57266200D01*
X111357200Y-57279200D01*
X111355200Y-57292200D01*
X111351200Y-57305200D01*
X111348200Y-57317200D01*
X111343200Y-57330200D01*
X111338200Y-57342200D01*
X111333200Y-57353200D01*
X111327200Y-57365200D01*
X111320200Y-57376200D01*
X111312200Y-57387200D01*
X111304200Y-57397200D01*
X111296200Y-57407200D01*
X111287200Y-57417200D01*
X111277200Y-57426200D01*
X111267200Y-57434200D01*
X111257200Y-57442200D01*
X111246200Y-57450200D01*
X111235200Y-57457200D01*
X111223200Y-57463200D01*
X111212200Y-57468200D01*
X111200200Y-57473200D01*
X111187200Y-57478200D01*
X111175200Y-57481200D01*
X111162200Y-57485200D01*
X111149200Y-57487200D01*
X111136200Y-57489200D01*
X111123200Y-57490200D01*
X111110200Y-57490200D01*
X110810200Y-57490200D01*
X110797200Y-57490200D01*
X110784200Y-57489200D01*
X110771200Y-57487200D01*
X110758200Y-57485200D01*
X110745200Y-57481200D01*
X110733200Y-57478200D01*
X110720200Y-57473200D01*
X110708200Y-57468200D01*
X110697200Y-57463200D01*
X110685200Y-57457200D01*
X110674200Y-57450200D01*
X110663200Y-57442200D01*
X110653200Y-57434200D01*
X110643200Y-57426200D01*
X110633200Y-57417200D01*
X110624200Y-57407200D01*
X110616200Y-57397200D01*
X110608200Y-57387200D01*
X110600200Y-57376200D01*
X110593200Y-57365200D01*
X110587200Y-57353200D01*
X110582200Y-57342200D01*
X110577200Y-57330200D01*
X110572200Y-57317200D01*
X110569200Y-57305200D01*
X110565200Y-57292200D01*
X110563200Y-57279200D01*
X110561200Y-57266200D01*
X110560200Y-57253200D01*
X110560200Y-57240200D01*
X110560200Y-56940200D01*
X110560200Y-56927200D01*
X110561200Y-56914200D01*
X110563200Y-56901200D01*
X110565200Y-56888200D01*
X110569200Y-56875200D01*
X110572200Y-56863200D01*
X110577200Y-56850200D01*
X110582200Y-56838200D01*
X110587200Y-56827200D01*
X110593200Y-56815200D01*
X110600200Y-56804200D01*
X110608200Y-56793200D01*
X110616200Y-56783200D01*
X110624200Y-56773200D01*
X110633200Y-56763200D01*
X110643200Y-56754200D01*
X110653200Y-56746200D01*
X110663200Y-56738200D01*
X110674200Y-56730200D01*
X110685200Y-56723200D01*
X110697200Y-56717200D01*
X110708200Y-56712200D01*
X110720200Y-56707200D01*
X110733200Y-56702200D01*
X110745200Y-56699200D01*
X110758200Y-56695200D01*
X110771200Y-56693200D01*
X110784200Y-56691200D01*
X110797200Y-56690200D01*
X110810200Y-56690200D01*
X111110200Y-56690200D01*
X111123200Y-56690200D01*
X111136200Y-56691200D01*
G36*
X111136200Y-56691200D02*
G01*
X111149200Y-56693200D01*
X111162200Y-56695200D01*
X111175200Y-56699200D01*
X111187200Y-56702200D01*
X111200200Y-56707200D01*
X111212200Y-56712200D01*
X111223200Y-56717200D01*
X111235200Y-56723200D01*
X111246200Y-56730200D01*
X111257200Y-56738200D01*
X111267200Y-56746200D01*
X111277200Y-56754200D01*
X111287200Y-56763200D01*
X111296200Y-56773200D01*
X111304200Y-56783200D01*
X111312200Y-56793200D01*
X111320200Y-56804200D01*
X111327200Y-56815200D01*
X111333200Y-56827200D01*
X111338200Y-56838200D01*
X111343200Y-56850200D01*
X111348200Y-56863200D01*
X111351200Y-56875200D01*
X111355200Y-56888200D01*
X111357200Y-56901200D01*
X111359200Y-56914200D01*
X111360200Y-56927200D01*
X111360200Y-56940200D01*
X111360200Y-57240200D01*
X111360200Y-57253200D01*
X111359200Y-57266200D01*
X111357200Y-57279200D01*
X111355200Y-57292200D01*
X111351200Y-57305200D01*
X111348200Y-57317200D01*
X111343200Y-57330200D01*
X111338200Y-57342200D01*
X111333200Y-57353200D01*
X111327200Y-57365200D01*
X111320200Y-57376200D01*
X111312200Y-57387200D01*
X111304200Y-57397200D01*
X111296200Y-57407200D01*
X111287200Y-57417200D01*
X111277200Y-57426200D01*
X111267200Y-57434200D01*
X111257200Y-57442200D01*
X111246200Y-57450200D01*
X111235200Y-57457200D01*
X111223200Y-57463200D01*
X111212200Y-57468200D01*
X111200200Y-57473200D01*
X111187200Y-57478200D01*
X111175200Y-57481200D01*
X111162200Y-57485200D01*
X111149200Y-57487200D01*
X111136200Y-57489200D01*
X111123200Y-57490200D01*
X111110200Y-57490200D01*
X110810200Y-57490200D01*
X110797200Y-57490200D01*
X110784200Y-57489200D01*
X110771200Y-57487200D01*
X110758200Y-57485200D01*
X110745200Y-57481200D01*
X110733200Y-57478200D01*
X110720200Y-57473200D01*
X110708200Y-57468200D01*
X110697200Y-57463200D01*
X110685200Y-57457200D01*
X110674200Y-57450200D01*
X110663200Y-57442200D01*
X110653200Y-57434200D01*
X110643200Y-57426200D01*
X110633200Y-57417200D01*
X110624200Y-57407200D01*
X110616200Y-57397200D01*
X110608200Y-57387200D01*
X110600200Y-57376200D01*
X110593200Y-57365200D01*
X110587200Y-57353200D01*
X110582200Y-57342200D01*
X110577200Y-57330200D01*
X110572200Y-57317200D01*
X110569200Y-57305200D01*
X110565200Y-57292200D01*
X110563200Y-57279200D01*
X110561200Y-57266200D01*
X110560200Y-57253200D01*
X110560200Y-57240200D01*
X110560200Y-56940200D01*
X110560200Y-56927200D01*
X110561200Y-56914200D01*
X110563200Y-56901200D01*
X110565200Y-56888200D01*
X110569200Y-56875200D01*
X110572200Y-56863200D01*
X110577200Y-56850200D01*
X110582200Y-56838200D01*
X110587200Y-56827200D01*
X110593200Y-56815200D01*
X110600200Y-56804200D01*
X110608200Y-56793200D01*
X110616200Y-56783200D01*
X110624200Y-56773200D01*
X110633200Y-56763200D01*
X110643200Y-56754200D01*
X110653200Y-56746200D01*
X110663200Y-56738200D01*
X110674200Y-56730200D01*
X110685200Y-56723200D01*
X110697200Y-56717200D01*
X110708200Y-56712200D01*
X110720200Y-56707200D01*
X110733200Y-56702200D01*
X110745200Y-56699200D01*
X110758200Y-56695200D01*
X110771200Y-56693200D01*
X110784200Y-56691200D01*
X110797200Y-56690200D01*
X110810200Y-56690200D01*
X111110200Y-56690200D01*
X111123200Y-56690200D01*
X111136200Y-56691200D01*
G37*
X111136200Y-50191200D02*
X111149200Y-50193200D01*
X111162200Y-50195200D01*
X111175200Y-50199200D01*
X111187200Y-50202200D01*
X111200200Y-50207200D01*
X111212200Y-50212200D01*
X111223200Y-50217200D01*
X111235200Y-50223200D01*
X111246200Y-50230200D01*
X111257200Y-50238200D01*
X111267200Y-50246200D01*
X111277200Y-50254200D01*
X111287200Y-50263200D01*
X111296200Y-50273200D01*
X111304200Y-50283200D01*
X111312200Y-50293200D01*
X111320200Y-50304200D01*
X111327200Y-50315200D01*
X111333200Y-50327200D01*
X111338200Y-50338200D01*
X111343200Y-50350200D01*
X111348200Y-50363200D01*
X111351200Y-50375200D01*
X111355200Y-50388200D01*
X111357200Y-50401200D01*
X111359200Y-50414200D01*
X111360200Y-50427200D01*
X111360200Y-50440200D01*
X111360200Y-50740200D01*
X111360200Y-50753200D01*
X111359200Y-50766200D01*
X111357200Y-50779200D01*
X111355200Y-50792200D01*
X111351200Y-50805200D01*
X111348200Y-50817200D01*
X111343200Y-50830200D01*
X111338200Y-50842200D01*
X111333200Y-50853200D01*
X111327200Y-50865200D01*
X111320200Y-50876200D01*
X111312200Y-50887200D01*
X111304200Y-50897200D01*
X111296200Y-50907200D01*
X111287200Y-50917200D01*
X111277200Y-50926200D01*
X111267200Y-50934200D01*
X111257200Y-50942200D01*
X111246200Y-50950200D01*
X111235200Y-50957200D01*
X111223200Y-50963200D01*
X111212200Y-50968200D01*
X111200200Y-50973200D01*
X111187200Y-50978200D01*
X111175200Y-50981200D01*
X111162200Y-50985200D01*
X111149200Y-50987200D01*
X111136200Y-50989200D01*
X111123200Y-50990200D01*
X111110200Y-50990200D01*
X110810200Y-50990200D01*
X110797200Y-50990200D01*
X110784200Y-50989200D01*
X110771200Y-50987200D01*
X110758200Y-50985200D01*
X110745200Y-50981200D01*
X110733200Y-50978200D01*
X110720200Y-50973200D01*
X110708200Y-50968200D01*
X110697200Y-50963200D01*
X110685200Y-50957200D01*
X110674200Y-50950200D01*
X110663200Y-50942200D01*
X110653200Y-50934200D01*
X110643200Y-50926200D01*
X110633200Y-50917200D01*
X110624200Y-50907200D01*
X110616200Y-50897200D01*
X110608200Y-50887200D01*
X110600200Y-50876200D01*
X110593200Y-50865200D01*
X110587200Y-50853200D01*
X110582200Y-50842200D01*
X110577200Y-50830200D01*
X110572200Y-50817200D01*
X110569200Y-50805200D01*
X110565200Y-50792200D01*
X110563200Y-50779200D01*
X110561200Y-50766200D01*
X110560200Y-50753200D01*
X110560200Y-50740200D01*
X110560200Y-50440200D01*
X110560200Y-50427200D01*
X110561200Y-50414200D01*
X110563200Y-50401200D01*
X110565200Y-50388200D01*
X110569200Y-50375200D01*
X110572200Y-50363200D01*
X110577200Y-50350200D01*
X110582200Y-50338200D01*
X110587200Y-50327200D01*
X110593200Y-50315200D01*
X110600200Y-50304200D01*
X110608200Y-50293200D01*
X110616200Y-50283200D01*
X110624200Y-50273200D01*
X110633200Y-50263200D01*
X110643200Y-50254200D01*
X110653200Y-50246200D01*
X110663200Y-50238200D01*
X110674200Y-50230200D01*
X110685200Y-50223200D01*
X110697200Y-50217200D01*
X110708200Y-50212200D01*
X110720200Y-50207200D01*
X110733200Y-50202200D01*
X110745200Y-50199200D01*
X110758200Y-50195200D01*
X110771200Y-50193200D01*
X110784200Y-50191200D01*
X110797200Y-50190200D01*
X110810200Y-50190200D01*
X111110200Y-50190200D01*
X111123200Y-50190200D01*
X111136200Y-50191200D01*
G36*
X111136200Y-50191200D02*
G01*
X111149200Y-50193200D01*
X111162200Y-50195200D01*
X111175200Y-50199200D01*
X111187200Y-50202200D01*
X111200200Y-50207200D01*
X111212200Y-50212200D01*
X111223200Y-50217200D01*
X111235200Y-50223200D01*
X111246200Y-50230200D01*
X111257200Y-50238200D01*
X111267200Y-50246200D01*
X111277200Y-50254200D01*
X111287200Y-50263200D01*
X111296200Y-50273200D01*
X111304200Y-50283200D01*
X111312200Y-50293200D01*
X111320200Y-50304200D01*
X111327200Y-50315200D01*
X111333200Y-50327200D01*
X111338200Y-50338200D01*
X111343200Y-50350200D01*
X111348200Y-50363200D01*
X111351200Y-50375200D01*
X111355200Y-50388200D01*
X111357200Y-50401200D01*
X111359200Y-50414200D01*
X111360200Y-50427200D01*
X111360200Y-50440200D01*
X111360200Y-50740200D01*
X111360200Y-50753200D01*
X111359200Y-50766200D01*
X111357200Y-50779200D01*
X111355200Y-50792200D01*
X111351200Y-50805200D01*
X111348200Y-50817200D01*
X111343200Y-50830200D01*
X111338200Y-50842200D01*
X111333200Y-50853200D01*
X111327200Y-50865200D01*
X111320200Y-50876200D01*
X111312200Y-50887200D01*
X111304200Y-50897200D01*
X111296200Y-50907200D01*
X111287200Y-50917200D01*
X111277200Y-50926200D01*
X111267200Y-50934200D01*
X111257200Y-50942200D01*
X111246200Y-50950200D01*
X111235200Y-50957200D01*
X111223200Y-50963200D01*
X111212200Y-50968200D01*
X111200200Y-50973200D01*
X111187200Y-50978200D01*
X111175200Y-50981200D01*
X111162200Y-50985200D01*
X111149200Y-50987200D01*
X111136200Y-50989200D01*
X111123200Y-50990200D01*
X111110200Y-50990200D01*
X110810200Y-50990200D01*
X110797200Y-50990200D01*
X110784200Y-50989200D01*
X110771200Y-50987200D01*
X110758200Y-50985200D01*
X110745200Y-50981200D01*
X110733200Y-50978200D01*
X110720200Y-50973200D01*
X110708200Y-50968200D01*
X110697200Y-50963200D01*
X110685200Y-50957200D01*
X110674200Y-50950200D01*
X110663200Y-50942200D01*
X110653200Y-50934200D01*
X110643200Y-50926200D01*
X110633200Y-50917200D01*
X110624200Y-50907200D01*
X110616200Y-50897200D01*
X110608200Y-50887200D01*
X110600200Y-50876200D01*
X110593200Y-50865200D01*
X110587200Y-50853200D01*
X110582200Y-50842200D01*
X110577200Y-50830200D01*
X110572200Y-50817200D01*
X110569200Y-50805200D01*
X110565200Y-50792200D01*
X110563200Y-50779200D01*
X110561200Y-50766200D01*
X110560200Y-50753200D01*
X110560200Y-50740200D01*
X110560200Y-50440200D01*
X110560200Y-50427200D01*
X110561200Y-50414200D01*
X110563200Y-50401200D01*
X110565200Y-50388200D01*
X110569200Y-50375200D01*
X110572200Y-50363200D01*
X110577200Y-50350200D01*
X110582200Y-50338200D01*
X110587200Y-50327200D01*
X110593200Y-50315200D01*
X110600200Y-50304200D01*
X110608200Y-50293200D01*
X110616200Y-50283200D01*
X110624200Y-50273200D01*
X110633200Y-50263200D01*
X110643200Y-50254200D01*
X110653200Y-50246200D01*
X110663200Y-50238200D01*
X110674200Y-50230200D01*
X110685200Y-50223200D01*
X110697200Y-50217200D01*
X110708200Y-50212200D01*
X110720200Y-50207200D01*
X110733200Y-50202200D01*
X110745200Y-50199200D01*
X110758200Y-50195200D01*
X110771200Y-50193200D01*
X110784200Y-50191200D01*
X110797200Y-50190200D01*
X110810200Y-50190200D01*
X111110200Y-50190200D01*
X111123200Y-50190200D01*
X111136200Y-50191200D01*
G37*
X111136200Y-51141200D02*
X111149200Y-51143200D01*
X111162200Y-51145200D01*
X111175200Y-51149200D01*
X111187200Y-51152200D01*
X111200200Y-51157200D01*
X111212200Y-51162200D01*
X111223200Y-51167200D01*
X111235200Y-51173200D01*
X111246200Y-51180200D01*
X111257200Y-51188200D01*
X111267200Y-51196200D01*
X111277200Y-51204200D01*
X111287200Y-51213200D01*
X111296200Y-51223200D01*
X111304200Y-51233200D01*
X111312200Y-51243200D01*
X111320200Y-51254200D01*
X111327200Y-51265200D01*
X111333200Y-51277200D01*
X111338200Y-51288200D01*
X111343200Y-51300200D01*
X111348200Y-51313200D01*
X111351200Y-51325200D01*
X111355200Y-51338200D01*
X111357200Y-51351200D01*
X111359200Y-51364200D01*
X111360200Y-51377200D01*
X111360200Y-51390200D01*
X111360200Y-51690200D01*
X111360200Y-51703200D01*
X111359200Y-51716200D01*
X111357200Y-51729200D01*
X111355200Y-51742200D01*
X111351200Y-51755200D01*
X111348200Y-51767200D01*
X111343200Y-51780200D01*
X111338200Y-51792200D01*
X111333200Y-51803200D01*
X111327200Y-51815200D01*
X111320200Y-51826200D01*
X111312200Y-51837200D01*
X111304200Y-51847200D01*
X111296200Y-51857200D01*
X111287200Y-51867200D01*
X111277200Y-51876200D01*
X111267200Y-51884200D01*
X111257200Y-51892200D01*
X111246200Y-51900200D01*
X111235200Y-51907200D01*
X111223200Y-51913200D01*
X111212200Y-51918200D01*
X111200200Y-51923200D01*
X111187200Y-51928200D01*
X111175200Y-51931200D01*
X111162200Y-51935200D01*
X111149200Y-51937200D01*
X111136200Y-51939200D01*
X111123200Y-51940200D01*
X111110200Y-51940200D01*
X110810200Y-51940200D01*
X110797200Y-51940200D01*
X110784200Y-51939200D01*
X110771200Y-51937200D01*
X110758200Y-51935200D01*
X110745200Y-51931200D01*
X110733200Y-51928200D01*
X110720200Y-51923200D01*
X110708200Y-51918200D01*
X110697200Y-51913200D01*
X110685200Y-51907200D01*
X110674200Y-51900200D01*
X110663200Y-51892200D01*
X110653200Y-51884200D01*
X110643200Y-51876200D01*
X110633200Y-51867200D01*
X110624200Y-51857200D01*
X110616200Y-51847200D01*
X110608200Y-51837200D01*
X110600200Y-51826200D01*
X110593200Y-51815200D01*
X110587200Y-51803200D01*
X110582200Y-51792200D01*
X110577200Y-51780200D01*
X110572200Y-51767200D01*
X110569200Y-51755200D01*
X110565200Y-51742200D01*
X110563200Y-51729200D01*
X110561200Y-51716200D01*
X110560200Y-51703200D01*
X110560200Y-51690200D01*
X110560200Y-51390200D01*
X110560200Y-51377200D01*
X110561200Y-51364200D01*
X110563200Y-51351200D01*
X110565200Y-51338200D01*
X110569200Y-51325200D01*
X110572200Y-51313200D01*
X110577200Y-51300200D01*
X110582200Y-51288200D01*
X110587200Y-51277200D01*
X110593200Y-51265200D01*
X110600200Y-51254200D01*
X110608200Y-51243200D01*
X110616200Y-51233200D01*
X110624200Y-51223200D01*
X110633200Y-51213200D01*
X110643200Y-51204200D01*
X110653200Y-51196200D01*
X110663200Y-51188200D01*
X110674200Y-51180200D01*
X110685200Y-51173200D01*
X110697200Y-51167200D01*
X110708200Y-51162200D01*
X110720200Y-51157200D01*
X110733200Y-51152200D01*
X110745200Y-51149200D01*
X110758200Y-51145200D01*
X110771200Y-51143200D01*
X110784200Y-51141200D01*
X110797200Y-51140200D01*
X110810200Y-51140200D01*
X111110200Y-51140200D01*
X111123200Y-51140200D01*
X111136200Y-51141200D01*
G36*
X111136200Y-51141200D02*
G01*
X111149200Y-51143200D01*
X111162200Y-51145200D01*
X111175200Y-51149200D01*
X111187200Y-51152200D01*
X111200200Y-51157200D01*
X111212200Y-51162200D01*
X111223200Y-51167200D01*
X111235200Y-51173200D01*
X111246200Y-51180200D01*
X111257200Y-51188200D01*
X111267200Y-51196200D01*
X111277200Y-51204200D01*
X111287200Y-51213200D01*
X111296200Y-51223200D01*
X111304200Y-51233200D01*
X111312200Y-51243200D01*
X111320200Y-51254200D01*
X111327200Y-51265200D01*
X111333200Y-51277200D01*
X111338200Y-51288200D01*
X111343200Y-51300200D01*
X111348200Y-51313200D01*
X111351200Y-51325200D01*
X111355200Y-51338200D01*
X111357200Y-51351200D01*
X111359200Y-51364200D01*
X111360200Y-51377200D01*
X111360200Y-51390200D01*
X111360200Y-51690200D01*
X111360200Y-51703200D01*
X111359200Y-51716200D01*
X111357200Y-51729200D01*
X111355200Y-51742200D01*
X111351200Y-51755200D01*
X111348200Y-51767200D01*
X111343200Y-51780200D01*
X111338200Y-51792200D01*
X111333200Y-51803200D01*
X111327200Y-51815200D01*
X111320200Y-51826200D01*
X111312200Y-51837200D01*
X111304200Y-51847200D01*
X111296200Y-51857200D01*
X111287200Y-51867200D01*
X111277200Y-51876200D01*
X111267200Y-51884200D01*
X111257200Y-51892200D01*
X111246200Y-51900200D01*
X111235200Y-51907200D01*
X111223200Y-51913200D01*
X111212200Y-51918200D01*
X111200200Y-51923200D01*
X111187200Y-51928200D01*
X111175200Y-51931200D01*
X111162200Y-51935200D01*
X111149200Y-51937200D01*
X111136200Y-51939200D01*
X111123200Y-51940200D01*
X111110200Y-51940200D01*
X110810200Y-51940200D01*
X110797200Y-51940200D01*
X110784200Y-51939200D01*
X110771200Y-51937200D01*
X110758200Y-51935200D01*
X110745200Y-51931200D01*
X110733200Y-51928200D01*
X110720200Y-51923200D01*
X110708200Y-51918200D01*
X110697200Y-51913200D01*
X110685200Y-51907200D01*
X110674200Y-51900200D01*
X110663200Y-51892200D01*
X110653200Y-51884200D01*
X110643200Y-51876200D01*
X110633200Y-51867200D01*
X110624200Y-51857200D01*
X110616200Y-51847200D01*
X110608200Y-51837200D01*
X110600200Y-51826200D01*
X110593200Y-51815200D01*
X110587200Y-51803200D01*
X110582200Y-51792200D01*
X110577200Y-51780200D01*
X110572200Y-51767200D01*
X110569200Y-51755200D01*
X110565200Y-51742200D01*
X110563200Y-51729200D01*
X110561200Y-51716200D01*
X110560200Y-51703200D01*
X110560200Y-51690200D01*
X110560200Y-51390200D01*
X110560200Y-51377200D01*
X110561200Y-51364200D01*
X110563200Y-51351200D01*
X110565200Y-51338200D01*
X110569200Y-51325200D01*
X110572200Y-51313200D01*
X110577200Y-51300200D01*
X110582200Y-51288200D01*
X110587200Y-51277200D01*
X110593200Y-51265200D01*
X110600200Y-51254200D01*
X110608200Y-51243200D01*
X110616200Y-51233200D01*
X110624200Y-51223200D01*
X110633200Y-51213200D01*
X110643200Y-51204200D01*
X110653200Y-51196200D01*
X110663200Y-51188200D01*
X110674200Y-51180200D01*
X110685200Y-51173200D01*
X110697200Y-51167200D01*
X110708200Y-51162200D01*
X110720200Y-51157200D01*
X110733200Y-51152200D01*
X110745200Y-51149200D01*
X110758200Y-51145200D01*
X110771200Y-51143200D01*
X110784200Y-51141200D01*
X110797200Y-51140200D01*
X110810200Y-51140200D01*
X111110200Y-51140200D01*
X111123200Y-51140200D01*
X111136200Y-51141200D01*
G37*
X111136200Y-52091200D02*
X111149200Y-52093200D01*
X111162200Y-52095200D01*
X111175200Y-52099200D01*
X111187200Y-52102200D01*
X111200200Y-52107200D01*
X111212200Y-52112200D01*
X111223200Y-52117200D01*
X111235200Y-52123200D01*
X111246200Y-52130200D01*
X111257200Y-52138200D01*
X111267200Y-52146200D01*
X111277200Y-52154200D01*
X111287200Y-52163200D01*
X111296200Y-52173200D01*
X111304200Y-52183200D01*
X111312200Y-52193200D01*
X111320200Y-52204200D01*
X111327200Y-52215200D01*
X111333200Y-52227200D01*
X111338200Y-52238200D01*
X111343200Y-52250200D01*
X111348200Y-52263200D01*
X111351200Y-52275200D01*
X111355200Y-52288200D01*
X111357200Y-52301200D01*
X111359200Y-52314200D01*
X111360200Y-52327200D01*
X111360200Y-52340200D01*
X111360200Y-52640200D01*
X111360200Y-52653200D01*
X111359200Y-52666200D01*
X111357200Y-52679200D01*
X111355200Y-52692200D01*
X111351200Y-52705200D01*
X111348200Y-52717200D01*
X111343200Y-52730200D01*
X111338200Y-52742200D01*
X111333200Y-52753200D01*
X111327200Y-52765200D01*
X111320200Y-52776200D01*
X111312200Y-52787200D01*
X111304200Y-52797200D01*
X111296200Y-52807200D01*
X111287200Y-52817200D01*
X111277200Y-52826200D01*
X111267200Y-52834200D01*
X111257200Y-52842200D01*
X111246200Y-52850200D01*
X111235200Y-52857200D01*
X111223200Y-52863200D01*
X111212200Y-52868200D01*
X111200200Y-52873200D01*
X111187200Y-52878200D01*
X111175200Y-52881200D01*
X111162200Y-52885200D01*
X111149200Y-52887200D01*
X111136200Y-52889200D01*
X111123200Y-52890200D01*
X111110200Y-52890200D01*
X110810200Y-52890200D01*
X110797200Y-52890200D01*
X110784200Y-52889200D01*
X110771200Y-52887200D01*
X110758200Y-52885200D01*
X110745200Y-52881200D01*
X110733200Y-52878200D01*
X110720200Y-52873200D01*
X110708200Y-52868200D01*
X110697200Y-52863200D01*
X110685200Y-52857200D01*
X110674200Y-52850200D01*
X110663200Y-52842200D01*
X110653200Y-52834200D01*
X110643200Y-52826200D01*
X110633200Y-52817200D01*
X110624200Y-52807200D01*
X110616200Y-52797200D01*
X110608200Y-52787200D01*
X110600200Y-52776200D01*
X110593200Y-52765200D01*
X110587200Y-52753200D01*
X110582200Y-52742200D01*
X110577200Y-52730200D01*
X110572200Y-52717200D01*
X110569200Y-52705200D01*
X110565200Y-52692200D01*
X110563200Y-52679200D01*
X110561200Y-52666200D01*
X110560200Y-52653200D01*
X110560200Y-52640200D01*
X110560200Y-52340200D01*
X110560200Y-52327200D01*
X110561200Y-52314200D01*
X110563200Y-52301200D01*
X110565200Y-52288200D01*
X110569200Y-52275200D01*
X110572200Y-52263200D01*
X110577200Y-52250200D01*
X110582200Y-52238200D01*
X110587200Y-52227200D01*
X110593200Y-52215200D01*
X110600200Y-52204200D01*
X110608200Y-52193200D01*
X110616200Y-52183200D01*
X110624200Y-52173200D01*
X110633200Y-52163200D01*
X110643200Y-52154200D01*
X110653200Y-52146200D01*
X110663200Y-52138200D01*
X110674200Y-52130200D01*
X110685200Y-52123200D01*
X110697200Y-52117200D01*
X110708200Y-52112200D01*
X110720200Y-52107200D01*
X110733200Y-52102200D01*
X110745200Y-52099200D01*
X110758200Y-52095200D01*
X110771200Y-52093200D01*
X110784200Y-52091200D01*
X110797200Y-52090200D01*
X110810200Y-52090200D01*
X111110200Y-52090200D01*
X111123200Y-52090200D01*
X111136200Y-52091200D01*
G36*
X111136200Y-52091200D02*
G01*
X111149200Y-52093200D01*
X111162200Y-52095200D01*
X111175200Y-52099200D01*
X111187200Y-52102200D01*
X111200200Y-52107200D01*
X111212200Y-52112200D01*
X111223200Y-52117200D01*
X111235200Y-52123200D01*
X111246200Y-52130200D01*
X111257200Y-52138200D01*
X111267200Y-52146200D01*
X111277200Y-52154200D01*
X111287200Y-52163200D01*
X111296200Y-52173200D01*
X111304200Y-52183200D01*
X111312200Y-52193200D01*
X111320200Y-52204200D01*
X111327200Y-52215200D01*
X111333200Y-52227200D01*
X111338200Y-52238200D01*
X111343200Y-52250200D01*
X111348200Y-52263200D01*
X111351200Y-52275200D01*
X111355200Y-52288200D01*
X111357200Y-52301200D01*
X111359200Y-52314200D01*
X111360200Y-52327200D01*
X111360200Y-52340200D01*
X111360200Y-52640200D01*
X111360200Y-52653200D01*
X111359200Y-52666200D01*
X111357200Y-52679200D01*
X111355200Y-52692200D01*
X111351200Y-52705200D01*
X111348200Y-52717200D01*
X111343200Y-52730200D01*
X111338200Y-52742200D01*
X111333200Y-52753200D01*
X111327200Y-52765200D01*
X111320200Y-52776200D01*
X111312200Y-52787200D01*
X111304200Y-52797200D01*
X111296200Y-52807200D01*
X111287200Y-52817200D01*
X111277200Y-52826200D01*
X111267200Y-52834200D01*
X111257200Y-52842200D01*
X111246200Y-52850200D01*
X111235200Y-52857200D01*
X111223200Y-52863200D01*
X111212200Y-52868200D01*
X111200200Y-52873200D01*
X111187200Y-52878200D01*
X111175200Y-52881200D01*
X111162200Y-52885200D01*
X111149200Y-52887200D01*
X111136200Y-52889200D01*
X111123200Y-52890200D01*
X111110200Y-52890200D01*
X110810200Y-52890200D01*
X110797200Y-52890200D01*
X110784200Y-52889200D01*
X110771200Y-52887200D01*
X110758200Y-52885200D01*
X110745200Y-52881200D01*
X110733200Y-52878200D01*
X110720200Y-52873200D01*
X110708200Y-52868200D01*
X110697200Y-52863200D01*
X110685200Y-52857200D01*
X110674200Y-52850200D01*
X110663200Y-52842200D01*
X110653200Y-52834200D01*
X110643200Y-52826200D01*
X110633200Y-52817200D01*
X110624200Y-52807200D01*
X110616200Y-52797200D01*
X110608200Y-52787200D01*
X110600200Y-52776200D01*
X110593200Y-52765200D01*
X110587200Y-52753200D01*
X110582200Y-52742200D01*
X110577200Y-52730200D01*
X110572200Y-52717200D01*
X110569200Y-52705200D01*
X110565200Y-52692200D01*
X110563200Y-52679200D01*
X110561200Y-52666200D01*
X110560200Y-52653200D01*
X110560200Y-52640200D01*
X110560200Y-52340200D01*
X110560200Y-52327200D01*
X110561200Y-52314200D01*
X110563200Y-52301200D01*
X110565200Y-52288200D01*
X110569200Y-52275200D01*
X110572200Y-52263200D01*
X110577200Y-52250200D01*
X110582200Y-52238200D01*
X110587200Y-52227200D01*
X110593200Y-52215200D01*
X110600200Y-52204200D01*
X110608200Y-52193200D01*
X110616200Y-52183200D01*
X110624200Y-52173200D01*
X110633200Y-52163200D01*
X110643200Y-52154200D01*
X110653200Y-52146200D01*
X110663200Y-52138200D01*
X110674200Y-52130200D01*
X110685200Y-52123200D01*
X110697200Y-52117200D01*
X110708200Y-52112200D01*
X110720200Y-52107200D01*
X110733200Y-52102200D01*
X110745200Y-52099200D01*
X110758200Y-52095200D01*
X110771200Y-52093200D01*
X110784200Y-52091200D01*
X110797200Y-52090200D01*
X110810200Y-52090200D01*
X111110200Y-52090200D01*
X111123200Y-52090200D01*
X111136200Y-52091200D01*
G37*
X111136200Y-52991200D02*
X111149200Y-52993200D01*
X111162200Y-52995200D01*
X111175200Y-52999200D01*
X111187200Y-53002200D01*
X111200200Y-53007200D01*
X111212200Y-53012200D01*
X111223200Y-53017200D01*
X111235200Y-53023200D01*
X111246200Y-53030200D01*
X111257200Y-53038200D01*
X111267200Y-53046200D01*
X111277200Y-53054200D01*
X111287200Y-53063200D01*
X111296200Y-53073200D01*
X111304200Y-53083200D01*
X111312200Y-53093200D01*
X111320200Y-53104200D01*
X111327200Y-53115200D01*
X111333200Y-53127200D01*
X111338200Y-53138200D01*
X111343200Y-53150200D01*
X111348200Y-53163200D01*
X111351200Y-53175200D01*
X111355200Y-53188200D01*
X111357200Y-53201200D01*
X111359200Y-53214200D01*
X111360200Y-53227200D01*
X111360200Y-53240200D01*
X111360200Y-53540200D01*
X111360200Y-53553200D01*
X111359200Y-53566200D01*
X111357200Y-53579200D01*
X111355200Y-53592200D01*
X111351200Y-53605200D01*
X111348200Y-53617200D01*
X111343200Y-53630200D01*
X111338200Y-53642200D01*
X111333200Y-53653200D01*
X111327200Y-53665200D01*
X111320200Y-53676200D01*
X111312200Y-53687200D01*
X111304200Y-53697200D01*
X111296200Y-53707200D01*
X111287200Y-53717200D01*
X111277200Y-53726200D01*
X111267200Y-53734200D01*
X111257200Y-53742200D01*
X111246200Y-53750200D01*
X111235200Y-53757200D01*
X111223200Y-53763200D01*
X111212200Y-53768200D01*
X111200200Y-53773200D01*
X111187200Y-53778200D01*
X111175200Y-53781200D01*
X111162200Y-53785200D01*
X111149200Y-53787200D01*
X111136200Y-53789200D01*
X111123200Y-53790200D01*
X111110200Y-53790200D01*
X110810200Y-53790200D01*
X110797200Y-53790200D01*
X110784200Y-53789200D01*
X110771200Y-53787200D01*
X110758200Y-53785200D01*
X110745200Y-53781200D01*
X110733200Y-53778200D01*
X110720200Y-53773200D01*
X110708200Y-53768200D01*
X110697200Y-53763200D01*
X110685200Y-53757200D01*
X110674200Y-53750200D01*
X110663200Y-53742200D01*
X110653200Y-53734200D01*
X110643200Y-53726200D01*
X110633200Y-53717200D01*
X110624200Y-53707200D01*
X110616200Y-53697200D01*
X110608200Y-53687200D01*
X110600200Y-53676200D01*
X110593200Y-53665200D01*
X110587200Y-53653200D01*
X110582200Y-53642200D01*
X110577200Y-53630200D01*
X110572200Y-53617200D01*
X110569200Y-53605200D01*
X110565200Y-53592200D01*
X110563200Y-53579200D01*
X110561200Y-53566200D01*
X110560200Y-53553200D01*
X110560200Y-53540200D01*
X110560200Y-53240200D01*
X110560200Y-53227200D01*
X110561200Y-53214200D01*
X110563200Y-53201200D01*
X110565200Y-53188200D01*
X110569200Y-53175200D01*
X110572200Y-53163200D01*
X110577200Y-53150200D01*
X110582200Y-53138200D01*
X110587200Y-53127200D01*
X110593200Y-53115200D01*
X110600200Y-53104200D01*
X110608200Y-53093200D01*
X110616200Y-53083200D01*
X110624200Y-53073200D01*
X110633200Y-53063200D01*
X110643200Y-53054200D01*
X110653200Y-53046200D01*
X110663200Y-53038200D01*
X110674200Y-53030200D01*
X110685200Y-53023200D01*
X110697200Y-53017200D01*
X110708200Y-53012200D01*
X110720200Y-53007200D01*
X110733200Y-53002200D01*
X110745200Y-52999200D01*
X110758200Y-52995200D01*
X110771200Y-52993200D01*
X110784200Y-52991200D01*
X110797200Y-52990200D01*
X110810200Y-52990200D01*
X111110200Y-52990200D01*
X111123200Y-52990200D01*
X111136200Y-52991200D01*
G36*
X111136200Y-52991200D02*
G01*
X111149200Y-52993200D01*
X111162200Y-52995200D01*
X111175200Y-52999200D01*
X111187200Y-53002200D01*
X111200200Y-53007200D01*
X111212200Y-53012200D01*
X111223200Y-53017200D01*
X111235200Y-53023200D01*
X111246200Y-53030200D01*
X111257200Y-53038200D01*
X111267200Y-53046200D01*
X111277200Y-53054200D01*
X111287200Y-53063200D01*
X111296200Y-53073200D01*
X111304200Y-53083200D01*
X111312200Y-53093200D01*
X111320200Y-53104200D01*
X111327200Y-53115200D01*
X111333200Y-53127200D01*
X111338200Y-53138200D01*
X111343200Y-53150200D01*
X111348200Y-53163200D01*
X111351200Y-53175200D01*
X111355200Y-53188200D01*
X111357200Y-53201200D01*
X111359200Y-53214200D01*
X111360200Y-53227200D01*
X111360200Y-53240200D01*
X111360200Y-53540200D01*
X111360200Y-53553200D01*
X111359200Y-53566200D01*
X111357200Y-53579200D01*
X111355200Y-53592200D01*
X111351200Y-53605200D01*
X111348200Y-53617200D01*
X111343200Y-53630200D01*
X111338200Y-53642200D01*
X111333200Y-53653200D01*
X111327200Y-53665200D01*
X111320200Y-53676200D01*
X111312200Y-53687200D01*
X111304200Y-53697200D01*
X111296200Y-53707200D01*
X111287200Y-53717200D01*
X111277200Y-53726200D01*
X111267200Y-53734200D01*
X111257200Y-53742200D01*
X111246200Y-53750200D01*
X111235200Y-53757200D01*
X111223200Y-53763200D01*
X111212200Y-53768200D01*
X111200200Y-53773200D01*
X111187200Y-53778200D01*
X111175200Y-53781200D01*
X111162200Y-53785200D01*
X111149200Y-53787200D01*
X111136200Y-53789200D01*
X111123200Y-53790200D01*
X111110200Y-53790200D01*
X110810200Y-53790200D01*
X110797200Y-53790200D01*
X110784200Y-53789200D01*
X110771200Y-53787200D01*
X110758200Y-53785200D01*
X110745200Y-53781200D01*
X110733200Y-53778200D01*
X110720200Y-53773200D01*
X110708200Y-53768200D01*
X110697200Y-53763200D01*
X110685200Y-53757200D01*
X110674200Y-53750200D01*
X110663200Y-53742200D01*
X110653200Y-53734200D01*
X110643200Y-53726200D01*
X110633200Y-53717200D01*
X110624200Y-53707200D01*
X110616200Y-53697200D01*
X110608200Y-53687200D01*
X110600200Y-53676200D01*
X110593200Y-53665200D01*
X110587200Y-53653200D01*
X110582200Y-53642200D01*
X110577200Y-53630200D01*
X110572200Y-53617200D01*
X110569200Y-53605200D01*
X110565200Y-53592200D01*
X110563200Y-53579200D01*
X110561200Y-53566200D01*
X110560200Y-53553200D01*
X110560200Y-53540200D01*
X110560200Y-53240200D01*
X110560200Y-53227200D01*
X110561200Y-53214200D01*
X110563200Y-53201200D01*
X110565200Y-53188200D01*
X110569200Y-53175200D01*
X110572200Y-53163200D01*
X110577200Y-53150200D01*
X110582200Y-53138200D01*
X110587200Y-53127200D01*
X110593200Y-53115200D01*
X110600200Y-53104200D01*
X110608200Y-53093200D01*
X110616200Y-53083200D01*
X110624200Y-53073200D01*
X110633200Y-53063200D01*
X110643200Y-53054200D01*
X110653200Y-53046200D01*
X110663200Y-53038200D01*
X110674200Y-53030200D01*
X110685200Y-53023200D01*
X110697200Y-53017200D01*
X110708200Y-53012200D01*
X110720200Y-53007200D01*
X110733200Y-53002200D01*
X110745200Y-52999200D01*
X110758200Y-52995200D01*
X110771200Y-52993200D01*
X110784200Y-52991200D01*
X110797200Y-52990200D01*
X110810200Y-52990200D01*
X111110200Y-52990200D01*
X111123200Y-52990200D01*
X111136200Y-52991200D01*
G37*
X112536200Y-53891200D02*
X112549200Y-53893200D01*
X112562200Y-53895200D01*
X112575200Y-53899200D01*
X112587200Y-53902200D01*
X112600200Y-53907200D01*
X112612200Y-53912200D01*
X112623200Y-53917200D01*
X112635200Y-53923200D01*
X112646200Y-53930200D01*
X112657200Y-53938200D01*
X112667200Y-53946200D01*
X112677200Y-53954200D01*
X112687200Y-53963200D01*
X112696200Y-53973200D01*
X112704200Y-53983200D01*
X112712200Y-53993200D01*
X112720200Y-54004200D01*
X112727200Y-54015200D01*
X112733200Y-54027200D01*
X112738200Y-54038200D01*
X112743200Y-54050200D01*
X112748200Y-54063200D01*
X112751200Y-54075200D01*
X112755200Y-54088200D01*
X112757200Y-54101200D01*
X112759200Y-54114200D01*
X112760200Y-54127200D01*
X112760200Y-54140200D01*
X112760200Y-54440200D01*
X112760200Y-54453200D01*
X112759200Y-54466200D01*
X112757200Y-54479200D01*
X112755200Y-54492200D01*
X112751200Y-54505200D01*
X112748200Y-54517200D01*
X112743200Y-54530200D01*
X112738200Y-54542200D01*
X112733200Y-54553200D01*
X112727200Y-54565200D01*
X112720200Y-54576200D01*
X112712200Y-54587200D01*
X112704200Y-54597200D01*
X112696200Y-54607200D01*
X112687200Y-54617200D01*
X112677200Y-54626200D01*
X112667200Y-54634200D01*
X112657200Y-54642200D01*
X112646200Y-54650200D01*
X112635200Y-54657200D01*
X112623200Y-54663200D01*
X112612200Y-54668200D01*
X112600200Y-54673200D01*
X112587200Y-54678200D01*
X112575200Y-54681200D01*
X112562200Y-54685200D01*
X112549200Y-54687200D01*
X112536200Y-54689200D01*
X112523200Y-54690200D01*
X112510200Y-54690200D01*
X112210200Y-54690200D01*
X112197200Y-54690200D01*
X112184200Y-54689200D01*
X112171200Y-54687200D01*
X112158200Y-54685200D01*
X112145200Y-54681200D01*
X112133200Y-54678200D01*
X112120200Y-54673200D01*
X112108200Y-54668200D01*
X112097200Y-54663200D01*
X112085200Y-54657200D01*
X112074200Y-54650200D01*
X112063200Y-54642200D01*
X112053200Y-54634200D01*
X112043200Y-54626200D01*
X112033200Y-54617200D01*
X112024200Y-54607200D01*
X112016200Y-54597200D01*
X112008200Y-54587200D01*
X112000200Y-54576200D01*
X111993200Y-54565200D01*
X111987200Y-54553200D01*
X111982200Y-54542200D01*
X111977200Y-54530200D01*
X111972200Y-54517200D01*
X111969200Y-54505200D01*
X111965200Y-54492200D01*
X111963200Y-54479200D01*
X111961200Y-54466200D01*
X111960200Y-54453200D01*
X111960200Y-54440200D01*
X111960200Y-54140200D01*
X111960200Y-54127200D01*
X111961200Y-54114200D01*
X111963200Y-54101200D01*
X111965200Y-54088200D01*
X111969200Y-54075200D01*
X111972200Y-54063200D01*
X111977200Y-54050200D01*
X111982200Y-54038200D01*
X111987200Y-54027200D01*
X111993200Y-54015200D01*
X112000200Y-54004200D01*
X112008200Y-53993200D01*
X112016200Y-53983200D01*
X112024200Y-53973200D01*
X112033200Y-53963200D01*
X112043200Y-53954200D01*
X112053200Y-53946200D01*
X112063200Y-53938200D01*
X112074200Y-53930200D01*
X112085200Y-53923200D01*
X112097200Y-53917200D01*
X112108200Y-53912200D01*
X112120200Y-53907200D01*
X112133200Y-53902200D01*
X112145200Y-53899200D01*
X112158200Y-53895200D01*
X112171200Y-53893200D01*
X112184200Y-53891200D01*
X112197200Y-53890200D01*
X112210200Y-53890200D01*
X112510200Y-53890200D01*
X112523200Y-53890200D01*
X112536200Y-53891200D01*
G36*
X112536200Y-53891200D02*
G01*
X112549200Y-53893200D01*
X112562200Y-53895200D01*
X112575200Y-53899200D01*
X112587200Y-53902200D01*
X112600200Y-53907200D01*
X112612200Y-53912200D01*
X112623200Y-53917200D01*
X112635200Y-53923200D01*
X112646200Y-53930200D01*
X112657200Y-53938200D01*
X112667200Y-53946200D01*
X112677200Y-53954200D01*
X112687200Y-53963200D01*
X112696200Y-53973200D01*
X112704200Y-53983200D01*
X112712200Y-53993200D01*
X112720200Y-54004200D01*
X112727200Y-54015200D01*
X112733200Y-54027200D01*
X112738200Y-54038200D01*
X112743200Y-54050200D01*
X112748200Y-54063200D01*
X112751200Y-54075200D01*
X112755200Y-54088200D01*
X112757200Y-54101200D01*
X112759200Y-54114200D01*
X112760200Y-54127200D01*
X112760200Y-54140200D01*
X112760200Y-54440200D01*
X112760200Y-54453200D01*
X112759200Y-54466200D01*
X112757200Y-54479200D01*
X112755200Y-54492200D01*
X112751200Y-54505200D01*
X112748200Y-54517200D01*
X112743200Y-54530200D01*
X112738200Y-54542200D01*
X112733200Y-54553200D01*
X112727200Y-54565200D01*
X112720200Y-54576200D01*
X112712200Y-54587200D01*
X112704200Y-54597200D01*
X112696200Y-54607200D01*
X112687200Y-54617200D01*
X112677200Y-54626200D01*
X112667200Y-54634200D01*
X112657200Y-54642200D01*
X112646200Y-54650200D01*
X112635200Y-54657200D01*
X112623200Y-54663200D01*
X112612200Y-54668200D01*
X112600200Y-54673200D01*
X112587200Y-54678200D01*
X112575200Y-54681200D01*
X112562200Y-54685200D01*
X112549200Y-54687200D01*
X112536200Y-54689200D01*
X112523200Y-54690200D01*
X112510200Y-54690200D01*
X112210200Y-54690200D01*
X112197200Y-54690200D01*
X112184200Y-54689200D01*
X112171200Y-54687200D01*
X112158200Y-54685200D01*
X112145200Y-54681200D01*
X112133200Y-54678200D01*
X112120200Y-54673200D01*
X112108200Y-54668200D01*
X112097200Y-54663200D01*
X112085200Y-54657200D01*
X112074200Y-54650200D01*
X112063200Y-54642200D01*
X112053200Y-54634200D01*
X112043200Y-54626200D01*
X112033200Y-54617200D01*
X112024200Y-54607200D01*
X112016200Y-54597200D01*
X112008200Y-54587200D01*
X112000200Y-54576200D01*
X111993200Y-54565200D01*
X111987200Y-54553200D01*
X111982200Y-54542200D01*
X111977200Y-54530200D01*
X111972200Y-54517200D01*
X111969200Y-54505200D01*
X111965200Y-54492200D01*
X111963200Y-54479200D01*
X111961200Y-54466200D01*
X111960200Y-54453200D01*
X111960200Y-54440200D01*
X111960200Y-54140200D01*
X111960200Y-54127200D01*
X111961200Y-54114200D01*
X111963200Y-54101200D01*
X111965200Y-54088200D01*
X111969200Y-54075200D01*
X111972200Y-54063200D01*
X111977200Y-54050200D01*
X111982200Y-54038200D01*
X111987200Y-54027200D01*
X111993200Y-54015200D01*
X112000200Y-54004200D01*
X112008200Y-53993200D01*
X112016200Y-53983200D01*
X112024200Y-53973200D01*
X112033200Y-53963200D01*
X112043200Y-53954200D01*
X112053200Y-53946200D01*
X112063200Y-53938200D01*
X112074200Y-53930200D01*
X112085200Y-53923200D01*
X112097200Y-53917200D01*
X112108200Y-53912200D01*
X112120200Y-53907200D01*
X112133200Y-53902200D01*
X112145200Y-53899200D01*
X112158200Y-53895200D01*
X112171200Y-53893200D01*
X112184200Y-53891200D01*
X112197200Y-53890200D01*
X112210200Y-53890200D01*
X112510200Y-53890200D01*
X112523200Y-53890200D01*
X112536200Y-53891200D01*
G37*
X112536200Y-54791200D02*
X112549200Y-54793200D01*
X112562200Y-54795200D01*
X112575200Y-54799200D01*
X112587200Y-54802200D01*
X112600200Y-54807200D01*
X112612200Y-54812200D01*
X112623200Y-54817200D01*
X112635200Y-54823200D01*
X112646200Y-54830200D01*
X112657200Y-54838200D01*
X112667200Y-54846200D01*
X112677200Y-54854200D01*
X112687200Y-54863200D01*
X112696200Y-54873200D01*
X112704200Y-54883200D01*
X112712200Y-54893200D01*
X112720200Y-54904200D01*
X112727200Y-54915200D01*
X112733200Y-54927200D01*
X112738200Y-54938200D01*
X112743200Y-54950200D01*
X112748200Y-54963200D01*
X112751200Y-54975200D01*
X112755200Y-54988200D01*
X112757200Y-55001200D01*
X112759200Y-55014200D01*
X112760200Y-55027200D01*
X112760200Y-55040200D01*
X112760200Y-55340200D01*
X112760200Y-55353200D01*
X112759200Y-55366200D01*
X112757200Y-55379200D01*
X112755200Y-55392200D01*
X112751200Y-55405200D01*
X112748200Y-55417200D01*
X112743200Y-55430200D01*
X112738200Y-55442200D01*
X112733200Y-55453200D01*
X112727200Y-55465200D01*
X112720200Y-55476200D01*
X112712200Y-55487200D01*
X112704200Y-55497200D01*
X112696200Y-55507200D01*
X112687200Y-55517200D01*
X112677200Y-55526200D01*
X112667200Y-55534200D01*
X112657200Y-55542200D01*
X112646200Y-55550200D01*
X112635200Y-55557200D01*
X112623200Y-55563200D01*
X112612200Y-55568200D01*
X112600200Y-55573200D01*
X112587200Y-55578200D01*
X112575200Y-55581200D01*
X112562200Y-55585200D01*
X112549200Y-55587200D01*
X112536200Y-55589200D01*
X112523200Y-55590200D01*
X112510200Y-55590200D01*
X112210200Y-55590200D01*
X112197200Y-55590200D01*
X112184200Y-55589200D01*
X112171200Y-55587200D01*
X112158200Y-55585200D01*
X112145200Y-55581200D01*
X112133200Y-55578200D01*
X112120200Y-55573200D01*
X112108200Y-55568200D01*
X112097200Y-55563200D01*
X112085200Y-55557200D01*
X112074200Y-55550200D01*
X112063200Y-55542200D01*
X112053200Y-55534200D01*
X112043200Y-55526200D01*
X112033200Y-55517200D01*
X112024200Y-55507200D01*
X112016200Y-55497200D01*
X112008200Y-55487200D01*
X112000200Y-55476200D01*
X111993200Y-55465200D01*
X111987200Y-55453200D01*
X111982200Y-55442200D01*
X111977200Y-55430200D01*
X111972200Y-55417200D01*
X111969200Y-55405200D01*
X111965200Y-55392200D01*
X111963200Y-55379200D01*
X111961200Y-55366200D01*
X111960200Y-55353200D01*
X111960200Y-55340200D01*
X111960200Y-55040200D01*
X111960200Y-55027200D01*
X111961200Y-55014200D01*
X111963200Y-55001200D01*
X111965200Y-54988200D01*
X111969200Y-54975200D01*
X111972200Y-54963200D01*
X111977200Y-54950200D01*
X111982200Y-54938200D01*
X111987200Y-54927200D01*
X111993200Y-54915200D01*
X112000200Y-54904200D01*
X112008200Y-54893200D01*
X112016200Y-54883200D01*
X112024200Y-54873200D01*
X112033200Y-54863200D01*
X112043200Y-54854200D01*
X112053200Y-54846200D01*
X112063200Y-54838200D01*
X112074200Y-54830200D01*
X112085200Y-54823200D01*
X112097200Y-54817200D01*
X112108200Y-54812200D01*
X112120200Y-54807200D01*
X112133200Y-54802200D01*
X112145200Y-54799200D01*
X112158200Y-54795200D01*
X112171200Y-54793200D01*
X112184200Y-54791200D01*
X112197200Y-54790200D01*
X112210200Y-54790200D01*
X112510200Y-54790200D01*
X112523200Y-54790200D01*
X112536200Y-54791200D01*
G36*
X112536200Y-54791200D02*
G01*
X112549200Y-54793200D01*
X112562200Y-54795200D01*
X112575200Y-54799200D01*
X112587200Y-54802200D01*
X112600200Y-54807200D01*
X112612200Y-54812200D01*
X112623200Y-54817200D01*
X112635200Y-54823200D01*
X112646200Y-54830200D01*
X112657200Y-54838200D01*
X112667200Y-54846200D01*
X112677200Y-54854200D01*
X112687200Y-54863200D01*
X112696200Y-54873200D01*
X112704200Y-54883200D01*
X112712200Y-54893200D01*
X112720200Y-54904200D01*
X112727200Y-54915200D01*
X112733200Y-54927200D01*
X112738200Y-54938200D01*
X112743200Y-54950200D01*
X112748200Y-54963200D01*
X112751200Y-54975200D01*
X112755200Y-54988200D01*
X112757200Y-55001200D01*
X112759200Y-55014200D01*
X112760200Y-55027200D01*
X112760200Y-55040200D01*
X112760200Y-55340200D01*
X112760200Y-55353200D01*
X112759200Y-55366200D01*
X112757200Y-55379200D01*
X112755200Y-55392200D01*
X112751200Y-55405200D01*
X112748200Y-55417200D01*
X112743200Y-55430200D01*
X112738200Y-55442200D01*
X112733200Y-55453200D01*
X112727200Y-55465200D01*
X112720200Y-55476200D01*
X112712200Y-55487200D01*
X112704200Y-55497200D01*
X112696200Y-55507200D01*
X112687200Y-55517200D01*
X112677200Y-55526200D01*
X112667200Y-55534200D01*
X112657200Y-55542200D01*
X112646200Y-55550200D01*
X112635200Y-55557200D01*
X112623200Y-55563200D01*
X112612200Y-55568200D01*
X112600200Y-55573200D01*
X112587200Y-55578200D01*
X112575200Y-55581200D01*
X112562200Y-55585200D01*
X112549200Y-55587200D01*
X112536200Y-55589200D01*
X112523200Y-55590200D01*
X112510200Y-55590200D01*
X112210200Y-55590200D01*
X112197200Y-55590200D01*
X112184200Y-55589200D01*
X112171200Y-55587200D01*
X112158200Y-55585200D01*
X112145200Y-55581200D01*
X112133200Y-55578200D01*
X112120200Y-55573200D01*
X112108200Y-55568200D01*
X112097200Y-55563200D01*
X112085200Y-55557200D01*
X112074200Y-55550200D01*
X112063200Y-55542200D01*
X112053200Y-55534200D01*
X112043200Y-55526200D01*
X112033200Y-55517200D01*
X112024200Y-55507200D01*
X112016200Y-55497200D01*
X112008200Y-55487200D01*
X112000200Y-55476200D01*
X111993200Y-55465200D01*
X111987200Y-55453200D01*
X111982200Y-55442200D01*
X111977200Y-55430200D01*
X111972200Y-55417200D01*
X111969200Y-55405200D01*
X111965200Y-55392200D01*
X111963200Y-55379200D01*
X111961200Y-55366200D01*
X111960200Y-55353200D01*
X111960200Y-55340200D01*
X111960200Y-55040200D01*
X111960200Y-55027200D01*
X111961200Y-55014200D01*
X111963200Y-55001200D01*
X111965200Y-54988200D01*
X111969200Y-54975200D01*
X111972200Y-54963200D01*
X111977200Y-54950200D01*
X111982200Y-54938200D01*
X111987200Y-54927200D01*
X111993200Y-54915200D01*
X112000200Y-54904200D01*
X112008200Y-54893200D01*
X112016200Y-54883200D01*
X112024200Y-54873200D01*
X112033200Y-54863200D01*
X112043200Y-54854200D01*
X112053200Y-54846200D01*
X112063200Y-54838200D01*
X112074200Y-54830200D01*
X112085200Y-54823200D01*
X112097200Y-54817200D01*
X112108200Y-54812200D01*
X112120200Y-54807200D01*
X112133200Y-54802200D01*
X112145200Y-54799200D01*
X112158200Y-54795200D01*
X112171200Y-54793200D01*
X112184200Y-54791200D01*
X112197200Y-54790200D01*
X112210200Y-54790200D01*
X112510200Y-54790200D01*
X112523200Y-54790200D01*
X112536200Y-54791200D01*
G37*
X112536200Y-55741200D02*
X112549200Y-55743200D01*
X112562200Y-55745200D01*
X112575200Y-55749200D01*
X112587200Y-55752200D01*
X112600200Y-55757200D01*
X112612200Y-55762200D01*
X112623200Y-55767200D01*
X112635200Y-55773200D01*
X112646200Y-55780200D01*
X112657200Y-55788200D01*
X112667200Y-55796200D01*
X112677200Y-55804200D01*
X112687200Y-55813200D01*
X112696200Y-55823200D01*
X112704200Y-55833200D01*
X112712200Y-55843200D01*
X112720200Y-55854200D01*
X112727200Y-55865200D01*
X112733200Y-55877200D01*
X112738200Y-55888200D01*
X112743200Y-55900200D01*
X112748200Y-55913200D01*
X112751200Y-55925200D01*
X112755200Y-55938200D01*
X112757200Y-55951200D01*
X112759200Y-55964200D01*
X112760200Y-55977200D01*
X112760200Y-55990200D01*
X112760200Y-56290200D01*
X112760200Y-56303200D01*
X112759200Y-56316200D01*
X112757200Y-56329200D01*
X112755200Y-56342200D01*
X112751200Y-56355200D01*
X112748200Y-56367200D01*
X112743200Y-56380200D01*
X112738200Y-56392200D01*
X112733200Y-56403200D01*
X112727200Y-56415200D01*
X112720200Y-56426200D01*
X112712200Y-56437200D01*
X112704200Y-56447200D01*
X112696200Y-56457200D01*
X112687200Y-56467200D01*
X112677200Y-56476200D01*
X112667200Y-56484200D01*
X112657200Y-56492200D01*
X112646200Y-56500200D01*
X112635200Y-56507200D01*
X112623200Y-56513200D01*
X112612200Y-56518200D01*
X112600200Y-56523200D01*
X112587200Y-56528200D01*
X112575200Y-56531200D01*
X112562200Y-56535200D01*
X112549200Y-56537200D01*
X112536200Y-56539200D01*
X112523200Y-56540200D01*
X112510200Y-56540200D01*
X112210200Y-56540200D01*
X112197200Y-56540200D01*
X112184200Y-56539200D01*
X112171200Y-56537200D01*
X112158200Y-56535200D01*
X112145200Y-56531200D01*
X112133200Y-56528200D01*
X112120200Y-56523200D01*
X112108200Y-56518200D01*
X112097200Y-56513200D01*
X112085200Y-56507200D01*
X112074200Y-56500200D01*
X112063200Y-56492200D01*
X112053200Y-56484200D01*
X112043200Y-56476200D01*
X112033200Y-56467200D01*
X112024200Y-56457200D01*
X112016200Y-56447200D01*
X112008200Y-56437200D01*
X112000200Y-56426200D01*
X111993200Y-56415200D01*
X111987200Y-56403200D01*
X111982200Y-56392200D01*
X111977200Y-56380200D01*
X111972200Y-56367200D01*
X111969200Y-56355200D01*
X111965200Y-56342200D01*
X111963200Y-56329200D01*
X111961200Y-56316200D01*
X111960200Y-56303200D01*
X111960200Y-56290200D01*
X111960200Y-55990200D01*
X111960200Y-55977200D01*
X111961200Y-55964200D01*
X111963200Y-55951200D01*
X111965200Y-55938200D01*
X111969200Y-55925200D01*
X111972200Y-55913200D01*
X111977200Y-55900200D01*
X111982200Y-55888200D01*
X111987200Y-55877200D01*
X111993200Y-55865200D01*
X112000200Y-55854200D01*
X112008200Y-55843200D01*
X112016200Y-55833200D01*
X112024200Y-55823200D01*
X112033200Y-55813200D01*
X112043200Y-55804200D01*
X112053200Y-55796200D01*
X112063200Y-55788200D01*
X112074200Y-55780200D01*
X112085200Y-55773200D01*
X112097200Y-55767200D01*
X112108200Y-55762200D01*
X112120200Y-55757200D01*
X112133200Y-55752200D01*
X112145200Y-55749200D01*
X112158200Y-55745200D01*
X112171200Y-55743200D01*
X112184200Y-55741200D01*
X112197200Y-55740200D01*
X112210200Y-55740200D01*
X112510200Y-55740200D01*
X112523200Y-55740200D01*
X112536200Y-55741200D01*
G36*
X112536200Y-55741200D02*
G01*
X112549200Y-55743200D01*
X112562200Y-55745200D01*
X112575200Y-55749200D01*
X112587200Y-55752200D01*
X112600200Y-55757200D01*
X112612200Y-55762200D01*
X112623200Y-55767200D01*
X112635200Y-55773200D01*
X112646200Y-55780200D01*
X112657200Y-55788200D01*
X112667200Y-55796200D01*
X112677200Y-55804200D01*
X112687200Y-55813200D01*
X112696200Y-55823200D01*
X112704200Y-55833200D01*
X112712200Y-55843200D01*
X112720200Y-55854200D01*
X112727200Y-55865200D01*
X112733200Y-55877200D01*
X112738200Y-55888200D01*
X112743200Y-55900200D01*
X112748200Y-55913200D01*
X112751200Y-55925200D01*
X112755200Y-55938200D01*
X112757200Y-55951200D01*
X112759200Y-55964200D01*
X112760200Y-55977200D01*
X112760200Y-55990200D01*
X112760200Y-56290200D01*
X112760200Y-56303200D01*
X112759200Y-56316200D01*
X112757200Y-56329200D01*
X112755200Y-56342200D01*
X112751200Y-56355200D01*
X112748200Y-56367200D01*
X112743200Y-56380200D01*
X112738200Y-56392200D01*
X112733200Y-56403200D01*
X112727200Y-56415200D01*
X112720200Y-56426200D01*
X112712200Y-56437200D01*
X112704200Y-56447200D01*
X112696200Y-56457200D01*
X112687200Y-56467200D01*
X112677200Y-56476200D01*
X112667200Y-56484200D01*
X112657200Y-56492200D01*
X112646200Y-56500200D01*
X112635200Y-56507200D01*
X112623200Y-56513200D01*
X112612200Y-56518200D01*
X112600200Y-56523200D01*
X112587200Y-56528200D01*
X112575200Y-56531200D01*
X112562200Y-56535200D01*
X112549200Y-56537200D01*
X112536200Y-56539200D01*
X112523200Y-56540200D01*
X112510200Y-56540200D01*
X112210200Y-56540200D01*
X112197200Y-56540200D01*
X112184200Y-56539200D01*
X112171200Y-56537200D01*
X112158200Y-56535200D01*
X112145200Y-56531200D01*
X112133200Y-56528200D01*
X112120200Y-56523200D01*
X112108200Y-56518200D01*
X112097200Y-56513200D01*
X112085200Y-56507200D01*
X112074200Y-56500200D01*
X112063200Y-56492200D01*
X112053200Y-56484200D01*
X112043200Y-56476200D01*
X112033200Y-56467200D01*
X112024200Y-56457200D01*
X112016200Y-56447200D01*
X112008200Y-56437200D01*
X112000200Y-56426200D01*
X111993200Y-56415200D01*
X111987200Y-56403200D01*
X111982200Y-56392200D01*
X111977200Y-56380200D01*
X111972200Y-56367200D01*
X111969200Y-56355200D01*
X111965200Y-56342200D01*
X111963200Y-56329200D01*
X111961200Y-56316200D01*
X111960200Y-56303200D01*
X111960200Y-56290200D01*
X111960200Y-55990200D01*
X111960200Y-55977200D01*
X111961200Y-55964200D01*
X111963200Y-55951200D01*
X111965200Y-55938200D01*
X111969200Y-55925200D01*
X111972200Y-55913200D01*
X111977200Y-55900200D01*
X111982200Y-55888200D01*
X111987200Y-55877200D01*
X111993200Y-55865200D01*
X112000200Y-55854200D01*
X112008200Y-55843200D01*
X112016200Y-55833200D01*
X112024200Y-55823200D01*
X112033200Y-55813200D01*
X112043200Y-55804200D01*
X112053200Y-55796200D01*
X112063200Y-55788200D01*
X112074200Y-55780200D01*
X112085200Y-55773200D01*
X112097200Y-55767200D01*
X112108200Y-55762200D01*
X112120200Y-55757200D01*
X112133200Y-55752200D01*
X112145200Y-55749200D01*
X112158200Y-55745200D01*
X112171200Y-55743200D01*
X112184200Y-55741200D01*
X112197200Y-55740200D01*
X112210200Y-55740200D01*
X112510200Y-55740200D01*
X112523200Y-55740200D01*
X112536200Y-55741200D01*
G37*
X112536200Y-56691200D02*
X112549200Y-56693200D01*
X112562200Y-56695200D01*
X112575200Y-56699200D01*
X112587200Y-56702200D01*
X112600200Y-56707200D01*
X112612200Y-56712200D01*
X112623200Y-56717200D01*
X112635200Y-56723200D01*
X112646200Y-56730200D01*
X112657200Y-56738200D01*
X112667200Y-56746200D01*
X112677200Y-56754200D01*
X112687200Y-56763200D01*
X112696200Y-56773200D01*
X112704200Y-56783200D01*
X112712200Y-56793200D01*
X112720200Y-56804200D01*
X112727200Y-56815200D01*
X112733200Y-56827200D01*
X112738200Y-56838200D01*
X112743200Y-56850200D01*
X112748200Y-56863200D01*
X112751200Y-56875200D01*
X112755200Y-56888200D01*
X112757200Y-56901200D01*
X112759200Y-56914200D01*
X112760200Y-56927200D01*
X112760200Y-56940200D01*
X112760200Y-57240200D01*
X112760200Y-57253200D01*
X112759200Y-57266200D01*
X112757200Y-57279200D01*
X112755200Y-57292200D01*
X112751200Y-57305200D01*
X112748200Y-57317200D01*
X112743200Y-57330200D01*
X112738200Y-57342200D01*
X112733200Y-57353200D01*
X112727200Y-57365200D01*
X112720200Y-57376200D01*
X112712200Y-57387200D01*
X112704200Y-57397200D01*
X112696200Y-57407200D01*
X112687200Y-57417200D01*
X112677200Y-57426200D01*
X112667200Y-57434200D01*
X112657200Y-57442200D01*
X112646200Y-57450200D01*
X112635200Y-57457200D01*
X112623200Y-57463200D01*
X112612200Y-57468200D01*
X112600200Y-57473200D01*
X112587200Y-57478200D01*
X112575200Y-57481200D01*
X112562200Y-57485200D01*
X112549200Y-57487200D01*
X112536200Y-57489200D01*
X112523200Y-57490200D01*
X112510200Y-57490200D01*
X112210200Y-57490200D01*
X112197200Y-57490200D01*
X112184200Y-57489200D01*
X112171200Y-57487200D01*
X112158200Y-57485200D01*
X112145200Y-57481200D01*
X112133200Y-57478200D01*
X112120200Y-57473200D01*
X112108200Y-57468200D01*
X112097200Y-57463200D01*
X112085200Y-57457200D01*
X112074200Y-57450200D01*
X112063200Y-57442200D01*
X112053200Y-57434200D01*
X112043200Y-57426200D01*
X112033200Y-57417200D01*
X112024200Y-57407200D01*
X112016200Y-57397200D01*
X112008200Y-57387200D01*
X112000200Y-57376200D01*
X111993200Y-57365200D01*
X111987200Y-57353200D01*
X111982200Y-57342200D01*
X111977200Y-57330200D01*
X111972200Y-57317200D01*
X111969200Y-57305200D01*
X111965200Y-57292200D01*
X111963200Y-57279200D01*
X111961200Y-57266200D01*
X111960200Y-57253200D01*
X111960200Y-57240200D01*
X111960200Y-56940200D01*
X111960200Y-56927200D01*
X111961200Y-56914200D01*
X111963200Y-56901200D01*
X111965200Y-56888200D01*
X111969200Y-56875200D01*
X111972200Y-56863200D01*
X111977200Y-56850200D01*
X111982200Y-56838200D01*
X111987200Y-56827200D01*
X111993200Y-56815200D01*
X112000200Y-56804200D01*
X112008200Y-56793200D01*
X112016200Y-56783200D01*
X112024200Y-56773200D01*
X112033200Y-56763200D01*
X112043200Y-56754200D01*
X112053200Y-56746200D01*
X112063200Y-56738200D01*
X112074200Y-56730200D01*
X112085200Y-56723200D01*
X112097200Y-56717200D01*
X112108200Y-56712200D01*
X112120200Y-56707200D01*
X112133200Y-56702200D01*
X112145200Y-56699200D01*
X112158200Y-56695200D01*
X112171200Y-56693200D01*
X112184200Y-56691200D01*
X112197200Y-56690200D01*
X112210200Y-56690200D01*
X112510200Y-56690200D01*
X112523200Y-56690200D01*
X112536200Y-56691200D01*
G36*
X112536200Y-56691200D02*
G01*
X112549200Y-56693200D01*
X112562200Y-56695200D01*
X112575200Y-56699200D01*
X112587200Y-56702200D01*
X112600200Y-56707200D01*
X112612200Y-56712200D01*
X112623200Y-56717200D01*
X112635200Y-56723200D01*
X112646200Y-56730200D01*
X112657200Y-56738200D01*
X112667200Y-56746200D01*
X112677200Y-56754200D01*
X112687200Y-56763200D01*
X112696200Y-56773200D01*
X112704200Y-56783200D01*
X112712200Y-56793200D01*
X112720200Y-56804200D01*
X112727200Y-56815200D01*
X112733200Y-56827200D01*
X112738200Y-56838200D01*
X112743200Y-56850200D01*
X112748200Y-56863200D01*
X112751200Y-56875200D01*
X112755200Y-56888200D01*
X112757200Y-56901200D01*
X112759200Y-56914200D01*
X112760200Y-56927200D01*
X112760200Y-56940200D01*
X112760200Y-57240200D01*
X112760200Y-57253200D01*
X112759200Y-57266200D01*
X112757200Y-57279200D01*
X112755200Y-57292200D01*
X112751200Y-57305200D01*
X112748200Y-57317200D01*
X112743200Y-57330200D01*
X112738200Y-57342200D01*
X112733200Y-57353200D01*
X112727200Y-57365200D01*
X112720200Y-57376200D01*
X112712200Y-57387200D01*
X112704200Y-57397200D01*
X112696200Y-57407200D01*
X112687200Y-57417200D01*
X112677200Y-57426200D01*
X112667200Y-57434200D01*
X112657200Y-57442200D01*
X112646200Y-57450200D01*
X112635200Y-57457200D01*
X112623200Y-57463200D01*
X112612200Y-57468200D01*
X112600200Y-57473200D01*
X112587200Y-57478200D01*
X112575200Y-57481200D01*
X112562200Y-57485200D01*
X112549200Y-57487200D01*
X112536200Y-57489200D01*
X112523200Y-57490200D01*
X112510200Y-57490200D01*
X112210200Y-57490200D01*
X112197200Y-57490200D01*
X112184200Y-57489200D01*
X112171200Y-57487200D01*
X112158200Y-57485200D01*
X112145200Y-57481200D01*
X112133200Y-57478200D01*
X112120200Y-57473200D01*
X112108200Y-57468200D01*
X112097200Y-57463200D01*
X112085200Y-57457200D01*
X112074200Y-57450200D01*
X112063200Y-57442200D01*
X112053200Y-57434200D01*
X112043200Y-57426200D01*
X112033200Y-57417200D01*
X112024200Y-57407200D01*
X112016200Y-57397200D01*
X112008200Y-57387200D01*
X112000200Y-57376200D01*
X111993200Y-57365200D01*
X111987200Y-57353200D01*
X111982200Y-57342200D01*
X111977200Y-57330200D01*
X111972200Y-57317200D01*
X111969200Y-57305200D01*
X111965200Y-57292200D01*
X111963200Y-57279200D01*
X111961200Y-57266200D01*
X111960200Y-57253200D01*
X111960200Y-57240200D01*
X111960200Y-56940200D01*
X111960200Y-56927200D01*
X111961200Y-56914200D01*
X111963200Y-56901200D01*
X111965200Y-56888200D01*
X111969200Y-56875200D01*
X111972200Y-56863200D01*
X111977200Y-56850200D01*
X111982200Y-56838200D01*
X111987200Y-56827200D01*
X111993200Y-56815200D01*
X112000200Y-56804200D01*
X112008200Y-56793200D01*
X112016200Y-56783200D01*
X112024200Y-56773200D01*
X112033200Y-56763200D01*
X112043200Y-56754200D01*
X112053200Y-56746200D01*
X112063200Y-56738200D01*
X112074200Y-56730200D01*
X112085200Y-56723200D01*
X112097200Y-56717200D01*
X112108200Y-56712200D01*
X112120200Y-56707200D01*
X112133200Y-56702200D01*
X112145200Y-56699200D01*
X112158200Y-56695200D01*
X112171200Y-56693200D01*
X112184200Y-56691200D01*
X112197200Y-56690200D01*
X112210200Y-56690200D01*
X112510200Y-56690200D01*
X112523200Y-56690200D01*
X112536200Y-56691200D01*
G37*
X112536200Y-50191200D02*
X112549200Y-50193200D01*
X112562200Y-50195200D01*
X112575200Y-50199200D01*
X112587200Y-50202200D01*
X112600200Y-50207200D01*
X112612200Y-50212200D01*
X112623200Y-50217200D01*
X112635200Y-50223200D01*
X112646200Y-50230200D01*
X112657200Y-50238200D01*
X112667200Y-50246200D01*
X112677200Y-50254200D01*
X112687200Y-50263200D01*
X112696200Y-50273200D01*
X112704200Y-50283200D01*
X112712200Y-50293200D01*
X112720200Y-50304200D01*
X112727200Y-50315200D01*
X112733200Y-50327200D01*
X112738200Y-50338200D01*
X112743200Y-50350200D01*
X112748200Y-50363200D01*
X112751200Y-50375200D01*
X112755200Y-50388200D01*
X112757200Y-50401200D01*
X112759200Y-50414200D01*
X112760200Y-50427200D01*
X112760200Y-50440200D01*
X112760200Y-50740200D01*
X112760200Y-50753200D01*
X112759200Y-50766200D01*
X112757200Y-50779200D01*
X112755200Y-50792200D01*
X112751200Y-50805200D01*
X112748200Y-50817200D01*
X112743200Y-50830200D01*
X112738200Y-50842200D01*
X112733200Y-50853200D01*
X112727200Y-50865200D01*
X112720200Y-50876200D01*
X112712200Y-50887200D01*
X112704200Y-50897200D01*
X112696200Y-50907200D01*
X112687200Y-50917200D01*
X112677200Y-50926200D01*
X112667200Y-50934200D01*
X112657200Y-50942200D01*
X112646200Y-50950200D01*
X112635200Y-50957200D01*
X112623200Y-50963200D01*
X112612200Y-50968200D01*
X112600200Y-50973200D01*
X112587200Y-50978200D01*
X112575200Y-50981200D01*
X112562200Y-50985200D01*
X112549200Y-50987200D01*
X112536200Y-50989200D01*
X112523200Y-50990200D01*
X112510200Y-50990200D01*
X112210200Y-50990200D01*
X112197200Y-50990200D01*
X112184200Y-50989200D01*
X112171200Y-50987200D01*
X112158200Y-50985200D01*
X112145200Y-50981200D01*
X112133200Y-50978200D01*
X112120200Y-50973200D01*
X112108200Y-50968200D01*
X112097200Y-50963200D01*
X112085200Y-50957200D01*
X112074200Y-50950200D01*
X112063200Y-50942200D01*
X112053200Y-50934200D01*
X112043200Y-50926200D01*
X112033200Y-50917200D01*
X112024200Y-50907200D01*
X112016200Y-50897200D01*
X112008200Y-50887200D01*
X112000200Y-50876200D01*
X111993200Y-50865200D01*
X111987200Y-50853200D01*
X111982200Y-50842200D01*
X111977200Y-50830200D01*
X111972200Y-50817200D01*
X111969200Y-50805200D01*
X111965200Y-50792200D01*
X111963200Y-50779200D01*
X111961200Y-50766200D01*
X111960200Y-50753200D01*
X111960200Y-50740200D01*
X111960200Y-50440200D01*
X111960200Y-50427200D01*
X111961200Y-50414200D01*
X111963200Y-50401200D01*
X111965200Y-50388200D01*
X111969200Y-50375200D01*
X111972200Y-50363200D01*
X111977200Y-50350200D01*
X111982200Y-50338200D01*
X111987200Y-50327200D01*
X111993200Y-50315200D01*
X112000200Y-50304200D01*
X112008200Y-50293200D01*
X112016200Y-50283200D01*
X112024200Y-50273200D01*
X112033200Y-50263200D01*
X112043200Y-50254200D01*
X112053200Y-50246200D01*
X112063200Y-50238200D01*
X112074200Y-50230200D01*
X112085200Y-50223200D01*
X112097200Y-50217200D01*
X112108200Y-50212200D01*
X112120200Y-50207200D01*
X112133200Y-50202200D01*
X112145200Y-50199200D01*
X112158200Y-50195200D01*
X112171200Y-50193200D01*
X112184200Y-50191200D01*
X112197200Y-50190200D01*
X112210200Y-50190200D01*
X112510200Y-50190200D01*
X112523200Y-50190200D01*
X112536200Y-50191200D01*
G36*
X112536200Y-50191200D02*
G01*
X112549200Y-50193200D01*
X112562200Y-50195200D01*
X112575200Y-50199200D01*
X112587200Y-50202200D01*
X112600200Y-50207200D01*
X112612200Y-50212200D01*
X112623200Y-50217200D01*
X112635200Y-50223200D01*
X112646200Y-50230200D01*
X112657200Y-50238200D01*
X112667200Y-50246200D01*
X112677200Y-50254200D01*
X112687200Y-50263200D01*
X112696200Y-50273200D01*
X112704200Y-50283200D01*
X112712200Y-50293200D01*
X112720200Y-50304200D01*
X112727200Y-50315200D01*
X112733200Y-50327200D01*
X112738200Y-50338200D01*
X112743200Y-50350200D01*
X112748200Y-50363200D01*
X112751200Y-50375200D01*
X112755200Y-50388200D01*
X112757200Y-50401200D01*
X112759200Y-50414200D01*
X112760200Y-50427200D01*
X112760200Y-50440200D01*
X112760200Y-50740200D01*
X112760200Y-50753200D01*
X112759200Y-50766200D01*
X112757200Y-50779200D01*
X112755200Y-50792200D01*
X112751200Y-50805200D01*
X112748200Y-50817200D01*
X112743200Y-50830200D01*
X112738200Y-50842200D01*
X112733200Y-50853200D01*
X112727200Y-50865200D01*
X112720200Y-50876200D01*
X112712200Y-50887200D01*
X112704200Y-50897200D01*
X112696200Y-50907200D01*
X112687200Y-50917200D01*
X112677200Y-50926200D01*
X112667200Y-50934200D01*
X112657200Y-50942200D01*
X112646200Y-50950200D01*
X112635200Y-50957200D01*
X112623200Y-50963200D01*
X112612200Y-50968200D01*
X112600200Y-50973200D01*
X112587200Y-50978200D01*
X112575200Y-50981200D01*
X112562200Y-50985200D01*
X112549200Y-50987200D01*
X112536200Y-50989200D01*
X112523200Y-50990200D01*
X112510200Y-50990200D01*
X112210200Y-50990200D01*
X112197200Y-50990200D01*
X112184200Y-50989200D01*
X112171200Y-50987200D01*
X112158200Y-50985200D01*
X112145200Y-50981200D01*
X112133200Y-50978200D01*
X112120200Y-50973200D01*
X112108200Y-50968200D01*
X112097200Y-50963200D01*
X112085200Y-50957200D01*
X112074200Y-50950200D01*
X112063200Y-50942200D01*
X112053200Y-50934200D01*
X112043200Y-50926200D01*
X112033200Y-50917200D01*
X112024200Y-50907200D01*
X112016200Y-50897200D01*
X112008200Y-50887200D01*
X112000200Y-50876200D01*
X111993200Y-50865200D01*
X111987200Y-50853200D01*
X111982200Y-50842200D01*
X111977200Y-50830200D01*
X111972200Y-50817200D01*
X111969200Y-50805200D01*
X111965200Y-50792200D01*
X111963200Y-50779200D01*
X111961200Y-50766200D01*
X111960200Y-50753200D01*
X111960200Y-50740200D01*
X111960200Y-50440200D01*
X111960200Y-50427200D01*
X111961200Y-50414200D01*
X111963200Y-50401200D01*
X111965200Y-50388200D01*
X111969200Y-50375200D01*
X111972200Y-50363200D01*
X111977200Y-50350200D01*
X111982200Y-50338200D01*
X111987200Y-50327200D01*
X111993200Y-50315200D01*
X112000200Y-50304200D01*
X112008200Y-50293200D01*
X112016200Y-50283200D01*
X112024200Y-50273200D01*
X112033200Y-50263200D01*
X112043200Y-50254200D01*
X112053200Y-50246200D01*
X112063200Y-50238200D01*
X112074200Y-50230200D01*
X112085200Y-50223200D01*
X112097200Y-50217200D01*
X112108200Y-50212200D01*
X112120200Y-50207200D01*
X112133200Y-50202200D01*
X112145200Y-50199200D01*
X112158200Y-50195200D01*
X112171200Y-50193200D01*
X112184200Y-50191200D01*
X112197200Y-50190200D01*
X112210200Y-50190200D01*
X112510200Y-50190200D01*
X112523200Y-50190200D01*
X112536200Y-50191200D01*
G37*
X112536200Y-51141200D02*
X112549200Y-51143200D01*
X112562200Y-51145200D01*
X112575200Y-51149200D01*
X112587200Y-51152200D01*
X112600200Y-51157200D01*
X112612200Y-51162200D01*
X112623200Y-51167200D01*
X112635200Y-51173200D01*
X112646200Y-51180200D01*
X112657200Y-51188200D01*
X112667200Y-51196200D01*
X112677200Y-51204200D01*
X112687200Y-51213200D01*
X112696200Y-51223200D01*
X112704200Y-51233200D01*
X112712200Y-51243200D01*
X112720200Y-51254200D01*
X112727200Y-51265200D01*
X112733200Y-51277200D01*
X112738200Y-51288200D01*
X112743200Y-51300200D01*
X112748200Y-51313200D01*
X112751200Y-51325200D01*
X112755200Y-51338200D01*
X112757200Y-51351200D01*
X112759200Y-51364200D01*
X112760200Y-51377200D01*
X112760200Y-51390200D01*
X112760200Y-51690200D01*
X112760200Y-51703200D01*
X112759200Y-51716200D01*
X112757200Y-51729200D01*
X112755200Y-51742200D01*
X112751200Y-51755200D01*
X112748200Y-51767200D01*
X112743200Y-51780200D01*
X112738200Y-51792200D01*
X112733200Y-51803200D01*
X112727200Y-51815200D01*
X112720200Y-51826200D01*
X112712200Y-51837200D01*
X112704200Y-51847200D01*
X112696200Y-51857200D01*
X112687200Y-51867200D01*
X112677200Y-51876200D01*
X112667200Y-51884200D01*
X112657200Y-51892200D01*
X112646200Y-51900200D01*
X112635200Y-51907200D01*
X112623200Y-51913200D01*
X112612200Y-51918200D01*
X112600200Y-51923200D01*
X112587200Y-51928200D01*
X112575200Y-51931200D01*
X112562200Y-51935200D01*
X112549200Y-51937200D01*
X112536200Y-51939200D01*
X112523200Y-51940200D01*
X112510200Y-51940200D01*
X112210200Y-51940200D01*
X112197200Y-51940200D01*
X112184200Y-51939200D01*
X112171200Y-51937200D01*
X112158200Y-51935200D01*
X112145200Y-51931200D01*
X112133200Y-51928200D01*
X112120200Y-51923200D01*
X112108200Y-51918200D01*
X112097200Y-51913200D01*
X112085200Y-51907200D01*
X112074200Y-51900200D01*
X112063200Y-51892200D01*
X112053200Y-51884200D01*
X112043200Y-51876200D01*
X112033200Y-51867200D01*
X112024200Y-51857200D01*
X112016200Y-51847200D01*
X112008200Y-51837200D01*
X112000200Y-51826200D01*
X111993200Y-51815200D01*
X111987200Y-51803200D01*
X111982200Y-51792200D01*
X111977200Y-51780200D01*
X111972200Y-51767200D01*
X111969200Y-51755200D01*
X111965200Y-51742200D01*
X111963200Y-51729200D01*
X111961200Y-51716200D01*
X111960200Y-51703200D01*
X111960200Y-51690200D01*
X111960200Y-51390200D01*
X111960200Y-51377200D01*
X111961200Y-51364200D01*
X111963200Y-51351200D01*
X111965200Y-51338200D01*
X111969200Y-51325200D01*
X111972200Y-51313200D01*
X111977200Y-51300200D01*
X111982200Y-51288200D01*
X111987200Y-51277200D01*
X111993200Y-51265200D01*
X112000200Y-51254200D01*
X112008200Y-51243200D01*
X112016200Y-51233200D01*
X112024200Y-51223200D01*
X112033200Y-51213200D01*
X112043200Y-51204200D01*
X112053200Y-51196200D01*
X112063200Y-51188200D01*
X112074200Y-51180200D01*
X112085200Y-51173200D01*
X112097200Y-51167200D01*
X112108200Y-51162200D01*
X112120200Y-51157200D01*
X112133200Y-51152200D01*
X112145200Y-51149200D01*
X112158200Y-51145200D01*
X112171200Y-51143200D01*
X112184200Y-51141200D01*
X112197200Y-51140200D01*
X112210200Y-51140200D01*
X112510200Y-51140200D01*
X112523200Y-51140200D01*
X112536200Y-51141200D01*
G36*
X112536200Y-51141200D02*
G01*
X112549200Y-51143200D01*
X112562200Y-51145200D01*
X112575200Y-51149200D01*
X112587200Y-51152200D01*
X112600200Y-51157200D01*
X112612200Y-51162200D01*
X112623200Y-51167200D01*
X112635200Y-51173200D01*
X112646200Y-51180200D01*
X112657200Y-51188200D01*
X112667200Y-51196200D01*
X112677200Y-51204200D01*
X112687200Y-51213200D01*
X112696200Y-51223200D01*
X112704200Y-51233200D01*
X112712200Y-51243200D01*
X112720200Y-51254200D01*
X112727200Y-51265200D01*
X112733200Y-51277200D01*
X112738200Y-51288200D01*
X112743200Y-51300200D01*
X112748200Y-51313200D01*
X112751200Y-51325200D01*
X112755200Y-51338200D01*
X112757200Y-51351200D01*
X112759200Y-51364200D01*
X112760200Y-51377200D01*
X112760200Y-51390200D01*
X112760200Y-51690200D01*
X112760200Y-51703200D01*
X112759200Y-51716200D01*
X112757200Y-51729200D01*
X112755200Y-51742200D01*
X112751200Y-51755200D01*
X112748200Y-51767200D01*
X112743200Y-51780200D01*
X112738200Y-51792200D01*
X112733200Y-51803200D01*
X112727200Y-51815200D01*
X112720200Y-51826200D01*
X112712200Y-51837200D01*
X112704200Y-51847200D01*
X112696200Y-51857200D01*
X112687200Y-51867200D01*
X112677200Y-51876200D01*
X112667200Y-51884200D01*
X112657200Y-51892200D01*
X112646200Y-51900200D01*
X112635200Y-51907200D01*
X112623200Y-51913200D01*
X112612200Y-51918200D01*
X112600200Y-51923200D01*
X112587200Y-51928200D01*
X112575200Y-51931200D01*
X112562200Y-51935200D01*
X112549200Y-51937200D01*
X112536200Y-51939200D01*
X112523200Y-51940200D01*
X112510200Y-51940200D01*
X112210200Y-51940200D01*
X112197200Y-51940200D01*
X112184200Y-51939200D01*
X112171200Y-51937200D01*
X112158200Y-51935200D01*
X112145200Y-51931200D01*
X112133200Y-51928200D01*
X112120200Y-51923200D01*
X112108200Y-51918200D01*
X112097200Y-51913200D01*
X112085200Y-51907200D01*
X112074200Y-51900200D01*
X112063200Y-51892200D01*
X112053200Y-51884200D01*
X112043200Y-51876200D01*
X112033200Y-51867200D01*
X112024200Y-51857200D01*
X112016200Y-51847200D01*
X112008200Y-51837200D01*
X112000200Y-51826200D01*
X111993200Y-51815200D01*
X111987200Y-51803200D01*
X111982200Y-51792200D01*
X111977200Y-51780200D01*
X111972200Y-51767200D01*
X111969200Y-51755200D01*
X111965200Y-51742200D01*
X111963200Y-51729200D01*
X111961200Y-51716200D01*
X111960200Y-51703200D01*
X111960200Y-51690200D01*
X111960200Y-51390200D01*
X111960200Y-51377200D01*
X111961200Y-51364200D01*
X111963200Y-51351200D01*
X111965200Y-51338200D01*
X111969200Y-51325200D01*
X111972200Y-51313200D01*
X111977200Y-51300200D01*
X111982200Y-51288200D01*
X111987200Y-51277200D01*
X111993200Y-51265200D01*
X112000200Y-51254200D01*
X112008200Y-51243200D01*
X112016200Y-51233200D01*
X112024200Y-51223200D01*
X112033200Y-51213200D01*
X112043200Y-51204200D01*
X112053200Y-51196200D01*
X112063200Y-51188200D01*
X112074200Y-51180200D01*
X112085200Y-51173200D01*
X112097200Y-51167200D01*
X112108200Y-51162200D01*
X112120200Y-51157200D01*
X112133200Y-51152200D01*
X112145200Y-51149200D01*
X112158200Y-51145200D01*
X112171200Y-51143200D01*
X112184200Y-51141200D01*
X112197200Y-51140200D01*
X112210200Y-51140200D01*
X112510200Y-51140200D01*
X112523200Y-51140200D01*
X112536200Y-51141200D01*
G37*
X112536200Y-52091200D02*
X112549200Y-52093200D01*
X112562200Y-52095200D01*
X112575200Y-52099200D01*
X112587200Y-52102200D01*
X112600200Y-52107200D01*
X112612200Y-52112200D01*
X112623200Y-52117200D01*
X112635200Y-52123200D01*
X112646200Y-52130200D01*
X112657200Y-52138200D01*
X112667200Y-52146200D01*
X112677200Y-52154200D01*
X112687200Y-52163200D01*
X112696200Y-52173200D01*
X112704200Y-52183200D01*
X112712200Y-52193200D01*
X112720200Y-52204200D01*
X112727200Y-52215200D01*
X112733200Y-52227200D01*
X112738200Y-52238200D01*
X112743200Y-52250200D01*
X112748200Y-52263200D01*
X112751200Y-52275200D01*
X112755200Y-52288200D01*
X112757200Y-52301200D01*
X112759200Y-52314200D01*
X112760200Y-52327200D01*
X112760200Y-52340200D01*
X112760200Y-52640200D01*
X112760200Y-52653200D01*
X112759200Y-52666200D01*
X112757200Y-52679200D01*
X112755200Y-52692200D01*
X112751200Y-52705200D01*
X112748200Y-52717200D01*
X112743200Y-52730200D01*
X112738200Y-52742200D01*
X112733200Y-52753200D01*
X112727200Y-52765200D01*
X112720200Y-52776200D01*
X112712200Y-52787200D01*
X112704200Y-52797200D01*
X112696200Y-52807200D01*
X112687200Y-52817200D01*
X112677200Y-52826200D01*
X112667200Y-52834200D01*
X112657200Y-52842200D01*
X112646200Y-52850200D01*
X112635200Y-52857200D01*
X112623200Y-52863200D01*
X112612200Y-52868200D01*
X112600200Y-52873200D01*
X112587200Y-52878200D01*
X112575200Y-52881200D01*
X112562200Y-52885200D01*
X112549200Y-52887200D01*
X112536200Y-52889200D01*
X112523200Y-52890200D01*
X112510200Y-52890200D01*
X112210200Y-52890200D01*
X112197200Y-52890200D01*
X112184200Y-52889200D01*
X112171200Y-52887200D01*
X112158200Y-52885200D01*
X112145200Y-52881200D01*
X112133200Y-52878200D01*
X112120200Y-52873200D01*
X112108200Y-52868200D01*
X112097200Y-52863200D01*
X112085200Y-52857200D01*
X112074200Y-52850200D01*
X112063200Y-52842200D01*
X112053200Y-52834200D01*
X112043200Y-52826200D01*
X112033200Y-52817200D01*
X112024200Y-52807200D01*
X112016200Y-52797200D01*
X112008200Y-52787200D01*
X112000200Y-52776200D01*
X111993200Y-52765200D01*
X111987200Y-52753200D01*
X111982200Y-52742200D01*
X111977200Y-52730200D01*
X111972200Y-52717200D01*
X111969200Y-52705200D01*
X111965200Y-52692200D01*
X111963200Y-52679200D01*
X111961200Y-52666200D01*
X111960200Y-52653200D01*
X111960200Y-52640200D01*
X111960200Y-52340200D01*
X111960200Y-52327200D01*
X111961200Y-52314200D01*
X111963200Y-52301200D01*
X111965200Y-52288200D01*
X111969200Y-52275200D01*
X111972200Y-52263200D01*
X111977200Y-52250200D01*
X111982200Y-52238200D01*
X111987200Y-52227200D01*
X111993200Y-52215200D01*
X112000200Y-52204200D01*
X112008200Y-52193200D01*
X112016200Y-52183200D01*
X112024200Y-52173200D01*
X112033200Y-52163200D01*
X112043200Y-52154200D01*
X112053200Y-52146200D01*
X112063200Y-52138200D01*
X112074200Y-52130200D01*
X112085200Y-52123200D01*
X112097200Y-52117200D01*
X112108200Y-52112200D01*
X112120200Y-52107200D01*
X112133200Y-52102200D01*
X112145200Y-52099200D01*
X112158200Y-52095200D01*
X112171200Y-52093200D01*
X112184200Y-52091200D01*
X112197200Y-52090200D01*
X112210200Y-52090200D01*
X112510200Y-52090200D01*
X112523200Y-52090200D01*
X112536200Y-52091200D01*
G36*
X112536200Y-52091200D02*
G01*
X112549200Y-52093200D01*
X112562200Y-52095200D01*
X112575200Y-52099200D01*
X112587200Y-52102200D01*
X112600200Y-52107200D01*
X112612200Y-52112200D01*
X112623200Y-52117200D01*
X112635200Y-52123200D01*
X112646200Y-52130200D01*
X112657200Y-52138200D01*
X112667200Y-52146200D01*
X112677200Y-52154200D01*
X112687200Y-52163200D01*
X112696200Y-52173200D01*
X112704200Y-52183200D01*
X112712200Y-52193200D01*
X112720200Y-52204200D01*
X112727200Y-52215200D01*
X112733200Y-52227200D01*
X112738200Y-52238200D01*
X112743200Y-52250200D01*
X112748200Y-52263200D01*
X112751200Y-52275200D01*
X112755200Y-52288200D01*
X112757200Y-52301200D01*
X112759200Y-52314200D01*
X112760200Y-52327200D01*
X112760200Y-52340200D01*
X112760200Y-52640200D01*
X112760200Y-52653200D01*
X112759200Y-52666200D01*
X112757200Y-52679200D01*
X112755200Y-52692200D01*
X112751200Y-52705200D01*
X112748200Y-52717200D01*
X112743200Y-52730200D01*
X112738200Y-52742200D01*
X112733200Y-52753200D01*
X112727200Y-52765200D01*
X112720200Y-52776200D01*
X112712200Y-52787200D01*
X112704200Y-52797200D01*
X112696200Y-52807200D01*
X112687200Y-52817200D01*
X112677200Y-52826200D01*
X112667200Y-52834200D01*
X112657200Y-52842200D01*
X112646200Y-52850200D01*
X112635200Y-52857200D01*
X112623200Y-52863200D01*
X112612200Y-52868200D01*
X112600200Y-52873200D01*
X112587200Y-52878200D01*
X112575200Y-52881200D01*
X112562200Y-52885200D01*
X112549200Y-52887200D01*
X112536200Y-52889200D01*
X112523200Y-52890200D01*
X112510200Y-52890200D01*
X112210200Y-52890200D01*
X112197200Y-52890200D01*
X112184200Y-52889200D01*
X112171200Y-52887200D01*
X112158200Y-52885200D01*
X112145200Y-52881200D01*
X112133200Y-52878200D01*
X112120200Y-52873200D01*
X112108200Y-52868200D01*
X112097200Y-52863200D01*
X112085200Y-52857200D01*
X112074200Y-52850200D01*
X112063200Y-52842200D01*
X112053200Y-52834200D01*
X112043200Y-52826200D01*
X112033200Y-52817200D01*
X112024200Y-52807200D01*
X112016200Y-52797200D01*
X112008200Y-52787200D01*
X112000200Y-52776200D01*
X111993200Y-52765200D01*
X111987200Y-52753200D01*
X111982200Y-52742200D01*
X111977200Y-52730200D01*
X111972200Y-52717200D01*
X111969200Y-52705200D01*
X111965200Y-52692200D01*
X111963200Y-52679200D01*
X111961200Y-52666200D01*
X111960200Y-52653200D01*
X111960200Y-52640200D01*
X111960200Y-52340200D01*
X111960200Y-52327200D01*
X111961200Y-52314200D01*
X111963200Y-52301200D01*
X111965200Y-52288200D01*
X111969200Y-52275200D01*
X111972200Y-52263200D01*
X111977200Y-52250200D01*
X111982200Y-52238200D01*
X111987200Y-52227200D01*
X111993200Y-52215200D01*
X112000200Y-52204200D01*
X112008200Y-52193200D01*
X112016200Y-52183200D01*
X112024200Y-52173200D01*
X112033200Y-52163200D01*
X112043200Y-52154200D01*
X112053200Y-52146200D01*
X112063200Y-52138200D01*
X112074200Y-52130200D01*
X112085200Y-52123200D01*
X112097200Y-52117200D01*
X112108200Y-52112200D01*
X112120200Y-52107200D01*
X112133200Y-52102200D01*
X112145200Y-52099200D01*
X112158200Y-52095200D01*
X112171200Y-52093200D01*
X112184200Y-52091200D01*
X112197200Y-52090200D01*
X112210200Y-52090200D01*
X112510200Y-52090200D01*
X112523200Y-52090200D01*
X112536200Y-52091200D01*
G37*
X112536200Y-52991200D02*
X112549200Y-52993200D01*
X112562200Y-52995200D01*
X112575200Y-52999200D01*
X112587200Y-53002200D01*
X112600200Y-53007200D01*
X112612200Y-53012200D01*
X112623200Y-53017200D01*
X112635200Y-53023200D01*
X112646200Y-53030200D01*
X112657200Y-53038200D01*
X112667200Y-53046200D01*
X112677200Y-53054200D01*
X112687200Y-53063200D01*
X112696200Y-53073200D01*
X112704200Y-53083200D01*
X112712200Y-53093200D01*
X112720200Y-53104200D01*
X112727200Y-53115200D01*
X112733200Y-53127200D01*
X112738200Y-53138200D01*
X112743200Y-53150200D01*
X112748200Y-53163200D01*
X112751200Y-53175200D01*
X112755200Y-53188200D01*
X112757200Y-53201200D01*
X112759200Y-53214200D01*
X112760200Y-53227200D01*
X112760200Y-53240200D01*
X112760200Y-53540200D01*
X112760200Y-53553200D01*
X112759200Y-53566200D01*
X112757200Y-53579200D01*
X112755200Y-53592200D01*
X112751200Y-53605200D01*
X112748200Y-53617200D01*
X112743200Y-53630200D01*
X112738200Y-53642200D01*
X112733200Y-53653200D01*
X112727200Y-53665200D01*
X112720200Y-53676200D01*
X112712200Y-53687200D01*
X112704200Y-53697200D01*
X112696200Y-53707200D01*
X112687200Y-53717200D01*
X112677200Y-53726200D01*
X112667200Y-53734200D01*
X112657200Y-53742200D01*
X112646200Y-53750200D01*
X112635200Y-53757200D01*
X112623200Y-53763200D01*
X112612200Y-53768200D01*
X112600200Y-53773200D01*
X112587200Y-53778200D01*
X112575200Y-53781200D01*
X112562200Y-53785200D01*
X112549200Y-53787200D01*
X112536200Y-53789200D01*
X112523200Y-53790200D01*
X112510200Y-53790200D01*
X112210200Y-53790200D01*
X112197200Y-53790200D01*
X112184200Y-53789200D01*
X112171200Y-53787200D01*
X112158200Y-53785200D01*
X112145200Y-53781200D01*
X112133200Y-53778200D01*
X112120200Y-53773200D01*
X112108200Y-53768200D01*
X112097200Y-53763200D01*
X112085200Y-53757200D01*
X112074200Y-53750200D01*
X112063200Y-53742200D01*
X112053200Y-53734200D01*
X112043200Y-53726200D01*
X112033200Y-53717200D01*
X112024200Y-53707200D01*
X112016200Y-53697200D01*
X112008200Y-53687200D01*
X112000200Y-53676200D01*
X111993200Y-53665200D01*
X111987200Y-53653200D01*
X111982200Y-53642200D01*
X111977200Y-53630200D01*
X111972200Y-53617200D01*
X111969200Y-53605200D01*
X111965200Y-53592200D01*
X111963200Y-53579200D01*
X111961200Y-53566200D01*
X111960200Y-53553200D01*
X111960200Y-53540200D01*
X111960200Y-53240200D01*
X111960200Y-53227200D01*
X111961200Y-53214200D01*
X111963200Y-53201200D01*
X111965200Y-53188200D01*
X111969200Y-53175200D01*
X111972200Y-53163200D01*
X111977200Y-53150200D01*
X111982200Y-53138200D01*
X111987200Y-53127200D01*
X111993200Y-53115200D01*
X112000200Y-53104200D01*
X112008200Y-53093200D01*
X112016200Y-53083200D01*
X112024200Y-53073200D01*
X112033200Y-53063200D01*
X112043200Y-53054200D01*
X112053200Y-53046200D01*
X112063200Y-53038200D01*
X112074200Y-53030200D01*
X112085200Y-53023200D01*
X112097200Y-53017200D01*
X112108200Y-53012200D01*
X112120200Y-53007200D01*
X112133200Y-53002200D01*
X112145200Y-52999200D01*
X112158200Y-52995200D01*
X112171200Y-52993200D01*
X112184200Y-52991200D01*
X112197200Y-52990200D01*
X112210200Y-52990200D01*
X112510200Y-52990200D01*
X112523200Y-52990200D01*
X112536200Y-52991200D01*
G36*
X112536200Y-52991200D02*
G01*
X112549200Y-52993200D01*
X112562200Y-52995200D01*
X112575200Y-52999200D01*
X112587200Y-53002200D01*
X112600200Y-53007200D01*
X112612200Y-53012200D01*
X112623200Y-53017200D01*
X112635200Y-53023200D01*
X112646200Y-53030200D01*
X112657200Y-53038200D01*
X112667200Y-53046200D01*
X112677200Y-53054200D01*
X112687200Y-53063200D01*
X112696200Y-53073200D01*
X112704200Y-53083200D01*
X112712200Y-53093200D01*
X112720200Y-53104200D01*
X112727200Y-53115200D01*
X112733200Y-53127200D01*
X112738200Y-53138200D01*
X112743200Y-53150200D01*
X112748200Y-53163200D01*
X112751200Y-53175200D01*
X112755200Y-53188200D01*
X112757200Y-53201200D01*
X112759200Y-53214200D01*
X112760200Y-53227200D01*
X112760200Y-53240200D01*
X112760200Y-53540200D01*
X112760200Y-53553200D01*
X112759200Y-53566200D01*
X112757200Y-53579200D01*
X112755200Y-53592200D01*
X112751200Y-53605200D01*
X112748200Y-53617200D01*
X112743200Y-53630200D01*
X112738200Y-53642200D01*
X112733200Y-53653200D01*
X112727200Y-53665200D01*
X112720200Y-53676200D01*
X112712200Y-53687200D01*
X112704200Y-53697200D01*
X112696200Y-53707200D01*
X112687200Y-53717200D01*
X112677200Y-53726200D01*
X112667200Y-53734200D01*
X112657200Y-53742200D01*
X112646200Y-53750200D01*
X112635200Y-53757200D01*
X112623200Y-53763200D01*
X112612200Y-53768200D01*
X112600200Y-53773200D01*
X112587200Y-53778200D01*
X112575200Y-53781200D01*
X112562200Y-53785200D01*
X112549200Y-53787200D01*
X112536200Y-53789200D01*
X112523200Y-53790200D01*
X112510200Y-53790200D01*
X112210200Y-53790200D01*
X112197200Y-53790200D01*
X112184200Y-53789200D01*
X112171200Y-53787200D01*
X112158200Y-53785200D01*
X112145200Y-53781200D01*
X112133200Y-53778200D01*
X112120200Y-53773200D01*
X112108200Y-53768200D01*
X112097200Y-53763200D01*
X112085200Y-53757200D01*
X112074200Y-53750200D01*
X112063200Y-53742200D01*
X112053200Y-53734200D01*
X112043200Y-53726200D01*
X112033200Y-53717200D01*
X112024200Y-53707200D01*
X112016200Y-53697200D01*
X112008200Y-53687200D01*
X112000200Y-53676200D01*
X111993200Y-53665200D01*
X111987200Y-53653200D01*
X111982200Y-53642200D01*
X111977200Y-53630200D01*
X111972200Y-53617200D01*
X111969200Y-53605200D01*
X111965200Y-53592200D01*
X111963200Y-53579200D01*
X111961200Y-53566200D01*
X111960200Y-53553200D01*
X111960200Y-53540200D01*
X111960200Y-53240200D01*
X111960200Y-53227200D01*
X111961200Y-53214200D01*
X111963200Y-53201200D01*
X111965200Y-53188200D01*
X111969200Y-53175200D01*
X111972200Y-53163200D01*
X111977200Y-53150200D01*
X111982200Y-53138200D01*
X111987200Y-53127200D01*
X111993200Y-53115200D01*
X112000200Y-53104200D01*
X112008200Y-53093200D01*
X112016200Y-53083200D01*
X112024200Y-53073200D01*
X112033200Y-53063200D01*
X112043200Y-53054200D01*
X112053200Y-53046200D01*
X112063200Y-53038200D01*
X112074200Y-53030200D01*
X112085200Y-53023200D01*
X112097200Y-53017200D01*
X112108200Y-53012200D01*
X112120200Y-53007200D01*
X112133200Y-53002200D01*
X112145200Y-52999200D01*
X112158200Y-52995200D01*
X112171200Y-52993200D01*
X112184200Y-52991200D01*
X112197200Y-52990200D01*
X112210200Y-52990200D01*
X112510200Y-52990200D01*
X112523200Y-52990200D01*
X112536200Y-52991200D01*
G37*
X113827200Y-50842200D02*
X113845200Y-50844200D01*
X113863200Y-50848200D01*
X113881200Y-50852200D01*
X113898200Y-50857200D01*
X113915200Y-50863200D01*
X113932200Y-50870200D01*
X113949200Y-50878200D01*
X113965200Y-50887200D01*
X113981200Y-50896200D01*
X113996200Y-50907200D01*
X114010200Y-50918200D01*
X114024200Y-50930200D01*
X114037200Y-50943200D01*
X114050200Y-50956200D01*
X114062200Y-50970200D01*
X114073200Y-50984200D01*
X114084200Y-50999200D01*
X114093200Y-51015200D01*
X114102200Y-51031200D01*
X114110200Y-51048200D01*
X114117200Y-51065200D01*
X114123200Y-51082200D01*
X114128200Y-51099200D01*
X114132200Y-51117200D01*
X114136200Y-51135200D01*
X114138200Y-51153200D01*
X114140200Y-51172200D01*
X114140200Y-51190200D01*
X114140200Y-52490200D01*
X114140200Y-52508200D01*
X114138200Y-52527200D01*
X114136200Y-52545200D01*
X114132200Y-52563200D01*
X114128200Y-52581200D01*
X114123200Y-52598200D01*
X114117200Y-52615200D01*
X114110200Y-52632200D01*
X114102200Y-52649200D01*
X114093200Y-52665200D01*
X114084200Y-52681200D01*
X114073200Y-52696200D01*
X114062200Y-52710200D01*
X114050200Y-52724200D01*
X114037200Y-52737200D01*
X114024200Y-52750200D01*
X114010200Y-52762200D01*
X113996200Y-52773200D01*
X113981200Y-52784200D01*
X113965200Y-52793200D01*
X113949200Y-52802200D01*
X113932200Y-52810200D01*
X113915200Y-52817200D01*
X113898200Y-52823200D01*
X113881200Y-52828200D01*
X113863200Y-52832200D01*
X113845200Y-52836200D01*
X113827200Y-52838200D01*
X113808200Y-52840200D01*
X113790200Y-52840200D01*
X113390200Y-52840200D01*
X113372200Y-52840200D01*
X113353200Y-52838200D01*
X113335200Y-52836200D01*
X113317200Y-52832200D01*
X113299200Y-52828200D01*
X113282200Y-52823200D01*
X113265200Y-52817200D01*
X113248200Y-52810200D01*
X113231200Y-52802200D01*
X113215200Y-52793200D01*
X113199200Y-52784200D01*
X113184200Y-52773200D01*
X113170200Y-52762200D01*
X113156200Y-52750200D01*
X113143200Y-52737200D01*
X113130200Y-52724200D01*
X113118200Y-52710200D01*
X113107200Y-52696200D01*
X113096200Y-52681200D01*
X113087200Y-52665200D01*
X113078200Y-52649200D01*
X113070200Y-52632200D01*
X113063200Y-52615200D01*
X113057200Y-52598200D01*
X113052200Y-52581200D01*
X113048200Y-52563200D01*
X113044200Y-52545200D01*
X113042200Y-52527200D01*
X113040200Y-52508200D01*
X113040200Y-52490200D01*
X113040200Y-51190200D01*
X113040200Y-51172200D01*
X113042200Y-51153200D01*
X113044200Y-51135200D01*
X113048200Y-51117200D01*
X113052200Y-51099200D01*
X113057200Y-51082200D01*
X113063200Y-51065200D01*
X113070200Y-51048200D01*
X113078200Y-51031200D01*
X113087200Y-51015200D01*
X113096200Y-50999200D01*
X113107200Y-50984200D01*
X113118200Y-50970200D01*
X113130200Y-50956200D01*
X113143200Y-50943200D01*
X113156200Y-50930200D01*
X113170200Y-50918200D01*
X113184200Y-50907200D01*
X113199200Y-50896200D01*
X113215200Y-50887200D01*
X113231200Y-50878200D01*
X113248200Y-50870200D01*
X113265200Y-50863200D01*
X113282200Y-50857200D01*
X113299200Y-50852200D01*
X113317200Y-50848200D01*
X113335200Y-50844200D01*
X113353200Y-50842200D01*
X113372200Y-50840200D01*
X113390200Y-50840200D01*
X113790200Y-50840200D01*
X113808200Y-50840200D01*
X113827200Y-50842200D01*
G36*
X113827200Y-50842200D02*
G01*
X113845200Y-50844200D01*
X113863200Y-50848200D01*
X113881200Y-50852200D01*
X113898200Y-50857200D01*
X113915200Y-50863200D01*
X113932200Y-50870200D01*
X113949200Y-50878200D01*
X113965200Y-50887200D01*
X113981200Y-50896200D01*
X113996200Y-50907200D01*
X114010200Y-50918200D01*
X114024200Y-50930200D01*
X114037200Y-50943200D01*
X114050200Y-50956200D01*
X114062200Y-50970200D01*
X114073200Y-50984200D01*
X114084200Y-50999200D01*
X114093200Y-51015200D01*
X114102200Y-51031200D01*
X114110200Y-51048200D01*
X114117200Y-51065200D01*
X114123200Y-51082200D01*
X114128200Y-51099200D01*
X114132200Y-51117200D01*
X114136200Y-51135200D01*
X114138200Y-51153200D01*
X114140200Y-51172200D01*
X114140200Y-51190200D01*
X114140200Y-52490200D01*
X114140200Y-52508200D01*
X114138200Y-52527200D01*
X114136200Y-52545200D01*
X114132200Y-52563200D01*
X114128200Y-52581200D01*
X114123200Y-52598200D01*
X114117200Y-52615200D01*
X114110200Y-52632200D01*
X114102200Y-52649200D01*
X114093200Y-52665200D01*
X114084200Y-52681200D01*
X114073200Y-52696200D01*
X114062200Y-52710200D01*
X114050200Y-52724200D01*
X114037200Y-52737200D01*
X114024200Y-52750200D01*
X114010200Y-52762200D01*
X113996200Y-52773200D01*
X113981200Y-52784200D01*
X113965200Y-52793200D01*
X113949200Y-52802200D01*
X113932200Y-52810200D01*
X113915200Y-52817200D01*
X113898200Y-52823200D01*
X113881200Y-52828200D01*
X113863200Y-52832200D01*
X113845200Y-52836200D01*
X113827200Y-52838200D01*
X113808200Y-52840200D01*
X113790200Y-52840200D01*
X113390200Y-52840200D01*
X113372200Y-52840200D01*
X113353200Y-52838200D01*
X113335200Y-52836200D01*
X113317200Y-52832200D01*
X113299200Y-52828200D01*
X113282200Y-52823200D01*
X113265200Y-52817200D01*
X113248200Y-52810200D01*
X113231200Y-52802200D01*
X113215200Y-52793200D01*
X113199200Y-52784200D01*
X113184200Y-52773200D01*
X113170200Y-52762200D01*
X113156200Y-52750200D01*
X113143200Y-52737200D01*
X113130200Y-52724200D01*
X113118200Y-52710200D01*
X113107200Y-52696200D01*
X113096200Y-52681200D01*
X113087200Y-52665200D01*
X113078200Y-52649200D01*
X113070200Y-52632200D01*
X113063200Y-52615200D01*
X113057200Y-52598200D01*
X113052200Y-52581200D01*
X113048200Y-52563200D01*
X113044200Y-52545200D01*
X113042200Y-52527200D01*
X113040200Y-52508200D01*
X113040200Y-52490200D01*
X113040200Y-51190200D01*
X113040200Y-51172200D01*
X113042200Y-51153200D01*
X113044200Y-51135200D01*
X113048200Y-51117200D01*
X113052200Y-51099200D01*
X113057200Y-51082200D01*
X113063200Y-51065200D01*
X113070200Y-51048200D01*
X113078200Y-51031200D01*
X113087200Y-51015200D01*
X113096200Y-50999200D01*
X113107200Y-50984200D01*
X113118200Y-50970200D01*
X113130200Y-50956200D01*
X113143200Y-50943200D01*
X113156200Y-50930200D01*
X113170200Y-50918200D01*
X113184200Y-50907200D01*
X113199200Y-50896200D01*
X113215200Y-50887200D01*
X113231200Y-50878200D01*
X113248200Y-50870200D01*
X113265200Y-50863200D01*
X113282200Y-50857200D01*
X113299200Y-50852200D01*
X113317200Y-50848200D01*
X113335200Y-50844200D01*
X113353200Y-50842200D01*
X113372200Y-50840200D01*
X113390200Y-50840200D01*
X113790200Y-50840200D01*
X113808200Y-50840200D01*
X113827200Y-50842200D01*
G37*
X113827200Y-54842200D02*
X113845200Y-54844200D01*
X113863200Y-54848200D01*
X113881200Y-54852200D01*
X113898200Y-54857200D01*
X113915200Y-54863200D01*
X113932200Y-54870200D01*
X113949200Y-54878200D01*
X113965200Y-54887200D01*
X113981200Y-54896200D01*
X113996200Y-54907200D01*
X114010200Y-54918200D01*
X114024200Y-54930200D01*
X114037200Y-54943200D01*
X114050200Y-54956200D01*
X114062200Y-54970200D01*
X114073200Y-54984200D01*
X114084200Y-54999200D01*
X114093200Y-55015200D01*
X114102200Y-55031200D01*
X114110200Y-55048200D01*
X114117200Y-55065200D01*
X114123200Y-55082200D01*
X114128200Y-55099200D01*
X114132200Y-55117200D01*
X114136200Y-55135200D01*
X114138200Y-55153200D01*
X114140200Y-55172200D01*
X114140200Y-55190200D01*
X114140200Y-56490200D01*
X114140200Y-56508200D01*
X114138200Y-56527200D01*
X114136200Y-56545200D01*
X114132200Y-56563200D01*
X114128200Y-56581200D01*
X114123200Y-56598200D01*
X114117200Y-56615200D01*
X114110200Y-56632200D01*
X114102200Y-56649200D01*
X114093200Y-56665200D01*
X114084200Y-56681200D01*
X114073200Y-56696200D01*
X114062200Y-56710200D01*
X114050200Y-56724200D01*
X114037200Y-56737200D01*
X114024200Y-56750200D01*
X114010200Y-56762200D01*
X113996200Y-56773200D01*
X113981200Y-56784200D01*
X113965200Y-56793200D01*
X113949200Y-56802200D01*
X113932200Y-56810200D01*
X113915200Y-56817200D01*
X113898200Y-56823200D01*
X113881200Y-56828200D01*
X113863200Y-56832200D01*
X113845200Y-56836200D01*
X113827200Y-56838200D01*
X113808200Y-56840200D01*
X113790200Y-56840200D01*
X113390200Y-56840200D01*
X113372200Y-56840200D01*
X113353200Y-56838200D01*
X113335200Y-56836200D01*
X113317200Y-56832200D01*
X113299200Y-56828200D01*
X113282200Y-56823200D01*
X113265200Y-56817200D01*
X113248200Y-56810200D01*
X113231200Y-56802200D01*
X113215200Y-56793200D01*
X113199200Y-56784200D01*
X113184200Y-56773200D01*
X113170200Y-56762200D01*
X113156200Y-56750200D01*
X113143200Y-56737200D01*
X113130200Y-56724200D01*
X113118200Y-56710200D01*
X113107200Y-56696200D01*
X113096200Y-56681200D01*
X113087200Y-56665200D01*
X113078200Y-56649200D01*
X113070200Y-56632200D01*
X113063200Y-56615200D01*
X113057200Y-56598200D01*
X113052200Y-56581200D01*
X113048200Y-56563200D01*
X113044200Y-56545200D01*
X113042200Y-56527200D01*
X113040200Y-56508200D01*
X113040200Y-56490200D01*
X113040200Y-55190200D01*
X113040200Y-55172200D01*
X113042200Y-55153200D01*
X113044200Y-55135200D01*
X113048200Y-55117200D01*
X113052200Y-55099200D01*
X113057200Y-55082200D01*
X113063200Y-55065200D01*
X113070200Y-55048200D01*
X113078200Y-55031200D01*
X113087200Y-55015200D01*
X113096200Y-54999200D01*
X113107200Y-54984200D01*
X113118200Y-54970200D01*
X113130200Y-54956200D01*
X113143200Y-54943200D01*
X113156200Y-54930200D01*
X113170200Y-54918200D01*
X113184200Y-54907200D01*
X113199200Y-54896200D01*
X113215200Y-54887200D01*
X113231200Y-54878200D01*
X113248200Y-54870200D01*
X113265200Y-54863200D01*
X113282200Y-54857200D01*
X113299200Y-54852200D01*
X113317200Y-54848200D01*
X113335200Y-54844200D01*
X113353200Y-54842200D01*
X113372200Y-54840200D01*
X113390200Y-54840200D01*
X113790200Y-54840200D01*
X113808200Y-54840200D01*
X113827200Y-54842200D01*
G36*
X113827200Y-54842200D02*
G01*
X113845200Y-54844200D01*
X113863200Y-54848200D01*
X113881200Y-54852200D01*
X113898200Y-54857200D01*
X113915200Y-54863200D01*
X113932200Y-54870200D01*
X113949200Y-54878200D01*
X113965200Y-54887200D01*
X113981200Y-54896200D01*
X113996200Y-54907200D01*
X114010200Y-54918200D01*
X114024200Y-54930200D01*
X114037200Y-54943200D01*
X114050200Y-54956200D01*
X114062200Y-54970200D01*
X114073200Y-54984200D01*
X114084200Y-54999200D01*
X114093200Y-55015200D01*
X114102200Y-55031200D01*
X114110200Y-55048200D01*
X114117200Y-55065200D01*
X114123200Y-55082200D01*
X114128200Y-55099200D01*
X114132200Y-55117200D01*
X114136200Y-55135200D01*
X114138200Y-55153200D01*
X114140200Y-55172200D01*
X114140200Y-55190200D01*
X114140200Y-56490200D01*
X114140200Y-56508200D01*
X114138200Y-56527200D01*
X114136200Y-56545200D01*
X114132200Y-56563200D01*
X114128200Y-56581200D01*
X114123200Y-56598200D01*
X114117200Y-56615200D01*
X114110200Y-56632200D01*
X114102200Y-56649200D01*
X114093200Y-56665200D01*
X114084200Y-56681200D01*
X114073200Y-56696200D01*
X114062200Y-56710200D01*
X114050200Y-56724200D01*
X114037200Y-56737200D01*
X114024200Y-56750200D01*
X114010200Y-56762200D01*
X113996200Y-56773200D01*
X113981200Y-56784200D01*
X113965200Y-56793200D01*
X113949200Y-56802200D01*
X113932200Y-56810200D01*
X113915200Y-56817200D01*
X113898200Y-56823200D01*
X113881200Y-56828200D01*
X113863200Y-56832200D01*
X113845200Y-56836200D01*
X113827200Y-56838200D01*
X113808200Y-56840200D01*
X113790200Y-56840200D01*
X113390200Y-56840200D01*
X113372200Y-56840200D01*
X113353200Y-56838200D01*
X113335200Y-56836200D01*
X113317200Y-56832200D01*
X113299200Y-56828200D01*
X113282200Y-56823200D01*
X113265200Y-56817200D01*
X113248200Y-56810200D01*
X113231200Y-56802200D01*
X113215200Y-56793200D01*
X113199200Y-56784200D01*
X113184200Y-56773200D01*
X113170200Y-56762200D01*
X113156200Y-56750200D01*
X113143200Y-56737200D01*
X113130200Y-56724200D01*
X113118200Y-56710200D01*
X113107200Y-56696200D01*
X113096200Y-56681200D01*
X113087200Y-56665200D01*
X113078200Y-56649200D01*
X113070200Y-56632200D01*
X113063200Y-56615200D01*
X113057200Y-56598200D01*
X113052200Y-56581200D01*
X113048200Y-56563200D01*
X113044200Y-56545200D01*
X113042200Y-56527200D01*
X113040200Y-56508200D01*
X113040200Y-56490200D01*
X113040200Y-55190200D01*
X113040200Y-55172200D01*
X113042200Y-55153200D01*
X113044200Y-55135200D01*
X113048200Y-55117200D01*
X113052200Y-55099200D01*
X113057200Y-55082200D01*
X113063200Y-55065200D01*
X113070200Y-55048200D01*
X113078200Y-55031200D01*
X113087200Y-55015200D01*
X113096200Y-54999200D01*
X113107200Y-54984200D01*
X113118200Y-54970200D01*
X113130200Y-54956200D01*
X113143200Y-54943200D01*
X113156200Y-54930200D01*
X113170200Y-54918200D01*
X113184200Y-54907200D01*
X113199200Y-54896200D01*
X113215200Y-54887200D01*
X113231200Y-54878200D01*
X113248200Y-54870200D01*
X113265200Y-54863200D01*
X113282200Y-54857200D01*
X113299200Y-54852200D01*
X113317200Y-54848200D01*
X113335200Y-54844200D01*
X113353200Y-54842200D01*
X113372200Y-54840200D01*
X113390200Y-54840200D01*
X113790200Y-54840200D01*
X113808200Y-54840200D01*
X113827200Y-54842200D01*
G37*
D11*
X194375000Y-88720000D03*
D12*
X194375000Y-86180000D03*
X194375000Y-83640000D03*
X194375000Y-81100000D03*
X194375000Y-78560000D03*
X194375000Y-76020000D03*
D11*
X133010200Y-46670200D03*
D12*
X133010200Y-49210200D03*
X133010200Y-51750200D03*
X133010200Y-54290200D03*
X133010200Y-56830200D03*
X133010200Y-59370200D03*
X133010200Y-61910200D03*
X133010200Y-64450200D03*
X133010200Y-66990200D03*
X133010200Y-69530200D03*
D13*
X153615800Y-135840200D03*
D14*
X153615800Y-133300200D03*
X153615800Y-130760200D03*
X153615800Y-128220200D03*
X153615800Y-125680200D03*
X153615800Y-123140200D03*
X153615800Y-120600200D03*
X153615800Y-118060200D03*
X153615800Y-115520200D03*
X153615800Y-112980200D03*
X153615800Y-110440200D03*
X153615800Y-107900200D03*
X153615800Y-105360200D03*
X153615800Y-102820200D03*
X153615800Y-100280200D03*
X153615800Y-97740200D03*
X138375800Y-97740200D03*
X138375800Y-100280200D03*
X138375800Y-102820200D03*
X138375800Y-105360200D03*
X138375800Y-107900200D03*
X138375800Y-110440200D03*
X138375800Y-112980200D03*
X138375800Y-115520200D03*
X138375800Y-118060200D03*
X138375800Y-120600200D03*
X138375800Y-123140200D03*
X138375800Y-125680200D03*
X138375800Y-128220200D03*
X138375800Y-130760200D03*
X138375800Y-133300200D03*
X138375800Y-135840200D03*
D13*
X123425000Y-135670000D03*
D14*
X123425000Y-133130000D03*
X123425000Y-130590000D03*
X123425000Y-128050000D03*
X123425000Y-125510000D03*
X123425000Y-122970000D03*
X123425000Y-120430000D03*
X123425000Y-117890000D03*
X123425000Y-115350000D03*
X123425000Y-112810000D03*
X123425000Y-110270000D03*
X123425000Y-107730000D03*
X123425000Y-105190000D03*
X123425000Y-102650000D03*
X123425000Y-100110000D03*
X123425000Y-97570000D03*
X108185000Y-97570000D03*
X108185000Y-100110000D03*
X108185000Y-102650000D03*
X108185000Y-105190000D03*
X108185000Y-107730000D03*
X108185000Y-110270000D03*
X108185000Y-112810000D03*
X108185000Y-115350000D03*
X108185000Y-117890000D03*
X108185000Y-120430000D03*
X108185000Y-122970000D03*
X108185000Y-125510000D03*
X108185000Y-128050000D03*
X108185000Y-130590000D03*
X108185000Y-133130000D03*
X108185000Y-135670000D03*
D15*
X176710000Y-94000000D03*
D16*
X176710000Y-96540000D03*
X174170000Y-94000000D03*
X174170000Y-96540000D03*
X171630000Y-94000000D03*
X171630000Y-96540000D03*
X169090000Y-94000000D03*
X169090000Y-96540000D03*
X166550000Y-94000000D03*
X164010000Y-96540000D03*
X166550000Y-96540000D03*
X164010000Y-99080000D03*
X166550000Y-99080000D03*
X164010000Y-101620000D03*
X166550000Y-101620000D03*
X164010000Y-104160000D03*
X166550000Y-104160000D03*
X164010000Y-106700000D03*
X166550000Y-106700000D03*
X164010000Y-109240000D03*
X166550000Y-109240000D03*
X164010000Y-111780000D03*
X166550000Y-111780000D03*
X164010000Y-114320000D03*
X166550000Y-114320000D03*
X164010000Y-116860000D03*
X166550000Y-119400000D03*
X166550000Y-116860000D03*
X169090000Y-119400000D03*
X169090000Y-116860000D03*
X171630000Y-119400000D03*
X171630000Y-116860000D03*
X174170000Y-119400000D03*
X174170000Y-116860000D03*
X176710000Y-119400000D03*
X176710000Y-116860000D03*
X179250000Y-119400000D03*
X179250000Y-116860000D03*
X181790000Y-119400000D03*
X181790000Y-116860000D03*
X184330000Y-119400000D03*
X184330000Y-116860000D03*
X186870000Y-119400000D03*
X189410000Y-116860000D03*
X186870000Y-116860000D03*
X189410000Y-114320000D03*
X186870000Y-114320000D03*
X189410000Y-111780000D03*
X186870000Y-111780000D03*
X189410000Y-109240000D03*
X186870000Y-109240000D03*
X189410000Y-106700000D03*
X186870000Y-106700000D03*
X189410000Y-104160000D03*
X186870000Y-104160000D03*
X189410000Y-101620000D03*
X186870000Y-101620000D03*
X189410000Y-99080000D03*
X186870000Y-99080000D03*
X189410000Y-96540000D03*
X186870000Y-94000000D03*
X186870000Y-96540000D03*
X184330000Y-94000000D03*
X184330000Y-96540000D03*
X181790000Y-94000000D03*
X181790000Y-96540000D03*
X179250000Y-94000000D03*
X179250000Y-96540000D03*
D11*
X155050200Y-46890200D03*
D12*
X152510200Y-46890200D03*
X149970200Y-46890200D03*
X147430200Y-46890200D03*
X144890200Y-46890200D03*
X142350200Y-46890200D03*
D11*
X127675000Y-120450000D03*
D12*
X127675000Y-117910000D03*
X127675000Y-115370000D03*
X127675000Y-112830000D03*
X127675000Y-110290000D03*
X127675000Y-107750000D03*
D15*
X149940200Y-68340200D03*
D16*
X152480200Y-70880200D03*
X152480200Y-68340200D03*
X155020200Y-70880200D03*
X155020200Y-68340200D03*
X157560200Y-70880200D03*
X160100200Y-68340200D03*
X157560200Y-68340200D03*
X160100200Y-65800200D03*
X157560200Y-65800200D03*
X160100200Y-63260200D03*
X157560200Y-63260200D03*
X160100200Y-60720200D03*
X157560200Y-60720200D03*
X160100200Y-58180200D03*
X157560200Y-58180200D03*
X160100200Y-55640200D03*
X157560200Y-53100200D03*
X157560200Y-55640200D03*
X155020200Y-53100200D03*
X155020200Y-55640200D03*
X152480200Y-53100200D03*
X152480200Y-55640200D03*
X149940200Y-53100200D03*
X149940200Y-55640200D03*
X147400200Y-53100200D03*
X147400200Y-55640200D03*
X144860200Y-53100200D03*
X142320200Y-55640200D03*
X144860200Y-55640200D03*
X142320200Y-58180200D03*
X144860200Y-58180200D03*
X142320200Y-60720200D03*
X144860200Y-60720200D03*
X142320200Y-63260200D03*
X144860200Y-63260200D03*
X142320200Y-65800200D03*
X144860200Y-65800200D03*
X142320200Y-68340200D03*
X144860200Y-70880200D03*
X144860200Y-68340200D03*
X147400200Y-70880200D03*
X147400200Y-68340200D03*
X149940200Y-70880200D03*
D17*
X181290200Y-68880200D03*
D18*
X181290200Y-76500200D03*
X188910200Y-76500200D03*
X188910200Y-68880200D03*
%LPD*%
M02*
